<svg version="1.1" xmlns="http://www.w3.org/2000/svg" viewBox="0 0 862.4922758487212 541.8244766864738" width="862.4922758487212" height="541.8244766864738">
  <!-- svg-source:excalidraw -->
  
  <defs>
    <style>
      @font-face {
        font-family: "Virgil";
        src: url("https://excalidraw.com/Virgil.woff2");
      }
      @font-face {
        font-family: "Cascadia";
        src: url("https://excalidraw.com/Cascadia.woff2");
      }
    </style>
  </defs>
  <rect x="0" y="0" width="862.4922758487212" height="541.8244766864738" fill="#ffffff"></rect><g stroke-linecap="round" transform="translate(10 198.14840824398198) rotate(0 201.5558152265944 90.65860937521711)"><path d="M0.17 -0.61 C142.29 2.15, 285.39 1.51, 404.1 0.37 M0.45 0.02 C120.22 -0.12, 240.55 -1.1, 402.82 -0.45 M401.47 1 C401.8 51.73, 403.33 101.64, 403.54 179.64 M403.79 0.49 C403.16 53.65, 403.97 108.23, 402.26 180.7 M402.79 180.29 C251.91 179.29, 100.62 180.21, -0.39 180.79 M403.57 180.83 C288.34 180.56, 172.75 180.83, 0.08 181.88 M0.74 180.28 C-0.78 137.61, -1.18 93.71, -1.67 0.8 M0.37 181.55 C2.27 142.18, 1.17 104.38, -0.47 0.64" stroke="#000000" stroke-width="1" fill="none"></path></g><g transform="translate(81.74656733888787 275.49082679759124) rotate(0 139.5 23)"><text x="0" y="32" font-family="Virgil, Segoe UI Emoji" font-size="36px" fill="#000000" text-anchor="start" style="white-space: pre;" direction="ltr">hand-drawn look</text></g><g stroke-linecap="round" transform="translate(472.3115663905792 107.23519432866286) rotate(0 190.090354729071 212.29464117890547)"><path d="M-0.27 1.07 C150.51 0.82, 299.78 0.91, 379.1 -0.65 M0.21 -0.57 C81.34 -0.79, 162.42 -1.41, 379.83 0.3 M380.2 0.99 C382.85 162.29, 382.58 325.23, 379.73 425.47 M379.89 -0.02 C381.36 156.26, 380.87 311.81, 380.06 424.73 M381.12 424.93 C255.25 424.33, 132.49 424.99, -0.11 425.07 M379.68 424.12 C249.07 425.05, 118.36 424.47, 0.19 424.48 M0.94 425.21 C2.03 318.8, 1.8 215.16, -0.19 0.69 M0.35 424.57 C1.99 311.36, 1.35 198.4, -0.37 -0.44" stroke="#000000" stroke-width="1" fill="none"></path></g><g transform="translate(500.47310042451545 129.1449516820388) rotate(0 168 23.000000000000014)"><text x="0" y="32" font-family="Virgil, Segoe UI Emoji" font-size="36px" fill="#000000" text-anchor="start" style="white-space: pre;" direction="ltr">nice shape libraries</text></g><g stroke-linecap="round" transform="translate(698.6064804992279 230.66681674925792) rotate(0 35.64795918367349 18.45918367346937)"><path d="M0.61 -0.64 L71.77 -1.82 L70.13 36.73 L1.88 35.93" stroke="none" stroke-width="0" fill="#fff"></path><path d="M-1.06 -1.91 C25.85 0.49, 54.12 0.5, 70.35 -1.73 M0.28 -0.04 C15.9 0.88, 32.16 -0.14, 71.79 -0.69 M71.54 1.32 C72.69 8.39, 72.7 19.43, 70.52 37.9 M70.36 -0.79 C71.59 13.85, 71.79 26.47, 70.83 36.17 M69.59 38.62 C52.38 38.1, 35.62 38.11, 0.85 36.36 M71.24 36.68 C52.5 35.42, 33.55 36.94, -0.82 35.94 M0.97 35.59 C-0.76 28.34, 1.09 17.16, -1.29 -0.41 M0.18 37.88 C0.16 26.57, 0.29 18.2, 0.23 -0.51" stroke="#000000" stroke-width="1" fill="none"></path></g><g transform="translate(708.2544396829014 236.62600042272732) rotate(0 13.5 12.5)"><text x="0" y="18" font-family="Virgil, Segoe UI Emoji" font-size="20px" fill="#000000" text-anchor="start" style="white-space: pre;" direction="ltr">42</text></g><g stroke-linecap="round" transform="translate(744.2544396829014 231.12600042272732) rotate(0 13 17.25)"><path d="M0.47 -1.82 L24.83 -0.19 L27.88 33.52 L1.1 34.65" stroke="none" stroke-width="0" fill="#fff"></path><path d="M-1.67 1.01 C8.75 1.26, 18.38 -1.48, 24.63 0.04 M-0.6 0.86 C6.84 -0.15, 15.88 -0.68, 25.51 -0.48 M27.57 -0.87 C27.62 12.09, 25.26 23.31, 27.04 35.14 M26.18 0.86 C26.05 7.99, 25.21 14.25, 25.58 35.15 M25.45 35.38 C18.16 35.61, 9.06 34.16, -0.8 33.77 M25.75 33.6 C19.7 35.05, 13.88 33.46, -0.29 35.45 M-0.41 35.91 C1.27 23.21, -1.45 11.04, -0.67 0.91 M0.33 33.98 C0.4 24.94, 0.17 12.97, 0.3 -0.32" stroke="#000000" stroke-width="1" fill="none"></path></g><g stroke-linecap="round"><g transform="translate(753.2769466278146 252.71509220734913) rotate(0 4.001124803584958 3.8448207961080527)" fill-rule="evenodd"><path d="M-1.82 -1.17 L7.77 1.88 L3.36 9.06 L0.15 1" stroke="none" stroke-width="0" fill="#000" fill-rule="evenodd"></path><path d="M0.4 -0.37 C2.37 -0.31, 3.24 -0.48, 7.98 -0.03 M0.34 -0.34 C2.54 0.25, 4.94 -0.15, 7.77 0.09 M7.58 0.69 C7.29 2.17, 6.18 5.45, 4.62 7.24 M8.34 0.16 C7.36 1.44, 6.08 3.11, 4.63 8.14 M4.74 8.44 C3.74 6.63, 2.16 4.17, -0.33 -0.75 M3.93 7.67 C3.36 5.23, 1.36 3.12, 0.43 0.15 M0 0 C0 0, 0 0, 0 0 M0 0 C0 0, 0 0, 0 0" stroke="#000000" stroke-width="1" fill="none"></path></g></g><g stroke-linecap="round"><g transform="translate(752.4218868274268 238.21509220734913) rotate(180.36471395673473 3.9501806158634736 4.064201796460594)" fill-rule="evenodd"><path d="M-1.17 -0.19 L9.84 -0.98 L5.44 8.11 L1 -1.65" stroke="none" stroke-width="0" fill="#000" fill-rule="evenodd"></path><path d="M-0.37 0.4 C1.25 -0.73, 2.71 -0.02, 7.93 0.22 M-0.34 -0.07 C2.55 -0.34, 4.51 -0.26, 8.05 0.05 M8.65 0.41 C6.36 3.33, 5.83 6.09, 3.62 7.14 M8.12 0.21 C6.97 1.47, 6.19 3.84, 4.53 7.59 M4.82 8.36 C3.08 4.66, 0.66 1.51, -0.75 -0.05 M4.05 8.24 C2.79 5.28, 1.83 3.96, 0.15 0.22 M0 0 C0 0, 0 0, 0 0 M0 0 C0 0, 0 0, 0 0" stroke="#000000" stroke-width="1" fill="none"></path></g></g><g stroke-linecap="round" transform="translate(514.4843813785881 194.43125851983217) rotate(0 35.3515625 32.53773834745763)"><path d="M44.65 1.1 C51.21 2.3, 58.66 7.26, 63.14 12.13 C67.63 16.99, 71.12 24.07, 71.55 30.29 C71.98 36.52, 69.67 44.11, 65.7 49.47 C61.74 54.83, 54.16 59.96, 47.79 62.43 C41.41 64.9, 34.03 65.7, 27.43 64.3 C20.84 62.89, 12.73 58.87, 8.23 54 C3.72 49.14, 0.93 41.47, 0.4 35.1 C-0.13 28.74, 1.31 21.19, 5.05 15.81 C8.79 10.44, 16.09 5.38, 22.86 2.88 C29.62 0.37, 41.41 0.75, 45.64 0.79 C49.87 0.83, 48.38 2.6, 48.23 3.13 M36.15 -1.12 C42.81 -1.63, 50.93 3.14, 56.47 7.07 C62 10.99, 67.07 16.63, 69.36 22.4 C71.66 28.17, 72.28 35.69, 70.27 41.68 C68.25 47.68, 63.14 54.67, 57.3 58.36 C51.46 62.06, 42.11 63.78, 35.22 63.85 C28.33 63.92, 21.58 62.2, 15.95 58.77 C10.33 55.33, 3.94 49.38, 1.48 43.23 C-0.99 37.07, -1.22 28.1, 1.15 21.84 C3.52 15.58, 10.29 9.28, 15.71 5.69 C21.12 2.1, 30.58 0.87, 33.63 0.28 C36.69 -0.31, 33.74 1.74, 34.04 2.13" stroke="#000000" stroke-width="2" fill="none"></path></g><g stroke-linecap="round"><g transform="translate(545.9727288362153 259.2799206986209) rotate(0 -1.4711903836700913 39.74475257123774)"><path d="M-0.9 0.59 C-1.53 13.64, -2.77 65.3, -3.05 78.37 M0.83 -0.15 C0.02 13.06, -3.15 66.21, -3.78 79.64" stroke="#000000" stroke-width="2" fill="none"></path></g></g><g stroke-linecap="round"><g transform="translate(542.6755890057063 340.1922618003126) rotate(0 15.074022849681057 24.294773565430688)"><path d="M0.59 0.42 C5.7 8.74, 25.58 40.9, 30.71 48.99 M-0.56 -0.4 C4.34 7.66, 24.28 39.42, 29.49 47.33" stroke="#000000" stroke-width="2" fill="none"></path></g></g><g stroke-linecap="round"><g transform="translate(538.0807796836741 336.670016037603) rotate(0 -12.952933221921398 22.977621537941815)"><path d="M0.42 -0.52 C-3.74 6.86, -21.46 37.22, -25.84 44.85 M-0.82 1.82 C-4.98 9.37, -22.1 39.57, -26.33 46.47" stroke="#000000" stroke-width="2" fill="none"></path></g></g><g stroke-linecap="round"><g transform="translate(502.40956842101673 303.7761361305319) rotate(0 20.464332143019817 -13.202091678141784)"><path d="M-0.52 0.88 C6.29 -3.46, 34.38 -21.24, 41.45 -25.6 M1.41 0.3 C8.02 -4.41, 33.91 -22.72, 40.58 -27.28" stroke="#000000" stroke-width="2" fill="none"></path></g></g><g stroke-linecap="round"><g transform="translate(542.7260373525694 275.99827904786514) rotate(0 15.131846790169789 17.49077671947424)"><path d="M0.88 0.16 C5.87 6.21, 25.42 29.95, 30.38 35.79 M-0.12 -0.81 C4.76 4.94, 24.78 27.75, 29.87 33.98" stroke="#000000" stroke-width="2" fill="none"></path></g></g><g stroke-linecap="round" transform="translate(624.1609647287364 358.02602598018007) rotate(0 35.33929034561561 53.625409397054625)"><path d="M1.15 0.12 L72.47 -0.24 L69.25 106.33 L-1.38 108.53" stroke="none" stroke-width="0" fill="#fff"></path><path d="M-0.86 1.27 C23.31 0.5, 48.51 -0.32, 71.3 -0.23 M-0.64 0.71 C19.8 0.61, 40.43 0.28, 70.29 0.9 M68.8 -1.07 C70.08 40.16, 71.18 77.75, 69.48 107.32 M70.27 -0.61 C70.31 28.24, 70.14 57.8, 70.53 108.01 M72.27 105.7 C43.23 107.47, 17.76 107.48, -1.13 108.09 M71.43 107.25 C46.6 106, 24.29 106.03, 0.9 107.87 M-1.81 105.7 C2.03 66.87, 1.4 30.12, 1.05 1.57 M-0.72 107.23 C0.27 71.44, -0.02 35.09, 0.9 -0.23" stroke="#000000" stroke-width="1" fill="none"></path></g><g stroke-linecap="round" transform="translate(616.6135316930222 351.00593669446573) rotate(0 35.33929034561561 53.625409397054625)"><path d="M1.79 -0.24 L69.25 -0.92 L69.3 108.53 L1.11 108.57" stroke="none" stroke-width="0" fill="#fff"></path><path d="M-0.15 0.33 C21.17 -0.93, 39.75 -0.68, 70.53 -0.04 M-0.87 -0.05 C13.71 -0.88, 28.86 0.4, 71.27 0.85 M69.17 1.61 C69.26 25.76, 68.48 50.27, 69.98 106.97 M70.46 -0.18 C69.85 39.56, 70.1 77.94, 71.43 107.81 M69.72 106.83 C43.15 106.29, 14.36 107.54, 0.53 108.79 M69.69 106.66 C55.84 106.68, 42.31 107.87, 0.58 106.72 M1.47 105.3 C1.81 81.12, 2.02 57.09, 0.77 -0.62 M-0.06 107.72 C0.42 76.93, 1.67 45.57, 0.58 0.06" stroke="#000000" stroke-width="1" fill="none"></path></g><g stroke-linecap="round" transform="translate(607.2184424073068 342.75203044446596) rotate(0 35.33929034561572 53.625409397054625)"><path d="M-1.43 -0.92 L69.3 1.28 L71.79 108.57 L-0.87 108.39" stroke="none" stroke-width="0" fill="#fff"></path><path d="M1.6 -0.48 C26.32 -0.35, 51.25 -0.16, 68.82 -1.28 M-0.91 -0.37 C25.83 0.93, 53.04 0.88, 70.02 -0.94 M70.27 0.66 C68.67 26.51, 69.17 52.6, 71.88 106.44 M70.29 0.97 C70.3 26.35, 71.19 51.75, 71.58 108.04 M70.74 106.84 C53.84 107.95, 39.8 108.64, -1.86 108.76 M70.47 106.68 C50.39 107.45, 28.87 106.3, -0.59 106.34 M0.84 106.98 C0.26 84.94, -0.02 58.87, -0.27 -1.44 M-0.35 107.66 C0.96 75.06, 0.64 43.38, 0.89 -0.12" stroke="#000000" stroke-width="1" fill="none"></path></g><g stroke-linecap="round"><g transform="translate(619.2048689942178 391.4992674918186) rotate(0 23.13202658697901 -1.2944587835741004)"><path d="M-0.29 0.37 C6.39 0.22, 32.48 0.83, 40.28 0.07 C48.09 -0.7, 45.63 -3.82, 46.55 -4.21 M1.76 -0.48 C8.25 -0.52, 31.93 2.06, 39.26 1.56 C46.6 1.06, 44.71 -2.49, 45.77 -3.48" stroke="#000000" stroke-width="1" fill="none"></path></g></g><g stroke-linecap="round"><g transform="translate(621.0601212322322 360.03398019298015) rotate(0 22.80935050177186 -1.6974213841157564)"><path d="M-0.14 -0.09 C2.71 -0.81, 9.32 -4.02, 16.81 -3.92 C24.3 -3.82, 40.18 -0.06, 44.8 0.52 M-1.67 -1.18 C1.04 -1.82, 7.68 -2.94, 15.84 -2.97 C24 -3, 42.56 -1.98, 47.29 -1.37" stroke="#000000" stroke-width="1" fill="none"></path></g></g><g stroke-linecap="round"><g transform="translate(620.9835217158627 427.4283544633372) rotate(0 22.870276682718213 0.5650539884991019)"><path d="M-0.03 -1.12 C4.27 -1, 19.54 0.04, 25.65 0.6 C31.75 1.16, 32.98 2.76, 36.58 2.26 C40.18 1.75, 45.36 -1.89, 47.24 -2.41 M-1.5 0.91 C3.2 0.7, 21.22 -1.52, 27.95 -1.08 C34.69 -0.64, 35.77 3.62, 38.93 3.54 C42.09 3.47, 45.1 -0.36, 46.91 -1.54" stroke="#000000" stroke-width="1" fill="none"></path></g></g><g stroke-linecap="round"><g transform="translate(617.7994745343324 438.671502871616) rotate(0 27.176272954802982 -1.162860308246195)"><path d="M-0.77 0.85 C0.76 0.83, 6.49 -0.87, 9.13 -1.23 C11.76 -1.58, 8.92 -1.78, 15.03 -1.29 C21.15 -0.8, 39.11 1.69, 45.79 1.69 C52.47 1.69, 53.82 -0.43, 55.12 -1.28 M1.03 0.25 C2.92 0.53, 8.57 0.36, 11.29 0.28 C14.01 0.2, 11.6 -0.11, 17.35 -0.21 C23.1 -0.3, 39.68 0.34, 45.79 -0.3 C51.9 -0.93, 52.55 -3.83, 54.02 -4.02" stroke="#000000" stroke-width="1" fill="none"></path></g></g><g stroke-linecap="round"><g transform="translate(618.0843174298982 375.09458174624126) rotate(0 22.709622999622127 0.9009626875732977)"><path d="M-1.04 -0.06 C1.94 -0.37, 9.18 -1.54, 17.1 -1.04 C25.01 -0.54, 41.37 2.31, 46.46 2.96 M0.61 -1.14 C4.01 -1.36, 11.76 -0.12, 19.23 0.26 C26.71 0.65, 40.61 1.08, 45.45 1.19" stroke="#000000" stroke-width="1" fill="none"></path></g></g><g stroke-linecap="round"><g transform="translate(618.1918056260486 409.57791078208083) rotate(0 22.5204142357843 0.3891249805350867)"><path d="M-1.1 -0.45 C0.35 -0.02, 4.29 2.36, 7.63 2.51 C10.96 2.65, 12.49 0.72, 18.91 0.42 C25.33 0.13, 41.57 0.67, 46.14 0.76 M0.53 -1.73 C1.86 -1.61, 3.43 0.89, 6.43 0.95 C9.43 1.01, 11.93 -1.44, 18.52 -1.38 C25.1 -1.33, 41.03 0.89, 45.97 1.27" stroke="#000000" stroke-width="1" fill="none"></path></g></g><g stroke-linecap="round" transform="translate(476.11035315745926 485.8294119102527) rotate(0 185.7500000000001 18)"><path d="M-1.89 -1.62 L371.36 -0.14 L372.22 35.6 L-1.99 36.68" stroke="none" stroke-width="0" fill="#fff"></path><path d="M-0.36 -0.9 C147.63 -0.62, 295.94 -1.87, 370.73 0.93 M-0.3 -0.23 C129.19 -1.78, 259.19 -2.29, 371.12 0.6 M370.84 0.34 C372.03 10.6, 372.65 24.55, 372.57 36.93 M372.38 0.97 C372.09 10.83, 370.68 22.24, 371.15 35.34 M371.32 35.71 C251.16 37.5, 128.85 37.15, 0.67 36.6 M371.95 36.5 C278.54 37.67, 184.16 37.59, 0.09 36.37 M0.81 36.42 C-0.14 22.6, 1.58 13.94, -0.1 -0.75 M0.69 35.11 C-0.07 22.35, 0.14 6.87, 0.37 0.09" stroke="#000000" stroke-width="1" fill="none"></path></g><g transform="translate(482.11035315745926 487.8294119102527) rotate(0 9.986842105263179 17.25)"><text x="9.986842105263158" y="24.5" font-family="Virgil, Segoe UI Emoji" font-size="27.236842105263143px" fill="#000000" text-anchor="middle" style="white-space: pre;" direction="ltr">B</text></g><g stroke-linecap="round" transform="translate(577.7123939737857 492.52064833932275) rotate(0 30.151507218608174 11.314725671928215)"><path d="M0.72 -0.4 L58.31 0.68 L61.13 22.66 L1.24 22.91" stroke="none" stroke-width="0" fill="#fff"></path><path d="M0.59 -0.98 C12.42 1.19, 28.31 1.18, 62.09 -0.97 M-0.23 -0.41 C15.22 0.73, 31.88 -0.43, 61.18 -0.33 M61.51 1.53 C61.44 8.11, 60.3 13.89, 61.54 24.4 M59.56 0.89 C60.1 8.32, 60.72 18.02, 60.9 22.49 M60.26 22.28 C44.73 23.68, 26.02 22.15, 1.51 24.1 M59.85 22.43 C37.41 23.19, 14.54 23.47, 0.25 23.03 M1.9 24.59 C-0.12 14.61, 1.86 8.44, 1.11 1.38 M0.2 21.88 C0.37 17.93, -0.94 12.25, -0.07 -0.07" stroke="#000000" stroke-width="1" fill="none"></path></g><g transform="translate(582.2794386956045 495.97792562796496) rotate(0 15 8)"><text x="15" y="11" font-family="Virgil, Segoe UI Emoji" font-size="12.571917413253558px" fill="#000000" text-anchor="middle" style="white-space: pre;" direction="ltr">style</text></g><g stroke-linecap="round" transform="translate(618.0438234888233 492.7044119102528) rotate(0 11.033264834318004 11.03326483431806)"><path d="M0.83 0.03 L23.31 0.28 L21.53 21.66 L-0.96 21.48" stroke="none" stroke-width="0" fill="#fff"></path><path d="M0.98 1.49 C7.32 -1.14, 10.33 -1.72, 22.9 -0.46 M0.2 -0.18 C6.6 -0.55, 11.62 0.08, 21.62 0.6 M22 -0.45 C23.42 10.08, 24.13 17.97, 22.39 20.59 M22.33 0.05 C22.59 8.45, 21.75 17.98, 22.18 22.05 M21.1 21.52 C17.34 23.65, 11.25 24.06, -0.15 21.16 M22.4 22.95 C16.14 22.6, 9.94 22.29, -0.69 23.02 M1.88 22.4 C1.12 14.66, -1.76 4.47, 1.08 0.4 M-0.94 21.26 C-0.15 17.02, 0.28 11.92, -0.99 0.34" stroke="#000000" stroke-width="1" fill="none"></path></g><g stroke-linecap="round"><g transform="translate(624.0364949761265 499.4996256585756) rotate(0 5.422215054559956 5.372127691785408)" fill-rule="evenodd"><path d="M1.24 0.28 L9.87 0.31 L4.24 9.82 L0.04 -1.65" stroke="none" stroke-width="0" fill="#000" fill-rule="evenodd"></path><path d="M0.93 -0.51 C3.52 -0.62, 8.25 0.22, 9.98 0.07 M0.45 -0.17 C4.23 0.46, 8.05 0.9, 10.8 1 M11.08 1.69 C9.66 4.8, 6.97 6.61, 6.18 10.02 M10.73 0.64 C9.08 3.42, 8.06 5.24, 5.1 10.7 M6.08 11.26 C4.39 7.85, 1.53 2.6, -0.24 0.18 M5.35 10.64 C3.41 6.75, 1.01 3.49, 0.57 -0.03 M0 0 C0 0, 0 0, 0 0 M0 0 C0 0, 0 0, 0 0" stroke="#000000" stroke-width="1" fill="none"></path></g></g><g stroke-linecap="round"><g transform="translate(515.6103531574596 495.2044119102528) rotate(7.9267096287617225 -1.9625304111673358 8.22362088144638)"><path d="M-0.67 -1.41 C-0.77 6.12, -3.95 11.97, -2.72 17.85 M0.15 0.27 C-1.53 5.47, -1.7 10.35, -4.08 17.47" stroke="#000000" stroke-width="2" fill="none"></path></g></g><g stroke-linecap="round"><g transform="translate(512.6103531574596 494.2044119102528) rotate(0 3.7082140188428525 0.40147992496872575)"><path d="M0.32 -0.18 C1.62 -0.33, 4.61 0.38, 7.54 1 M-0.17 0.23 C2.34 0.27, 4.28 0.14, 7.59 0.57" stroke="#000000" stroke-width="1" fill="none"></path></g></g><g stroke-linecap="round"><g transform="translate(506.1103531574596 512.7044119102528) rotate(0 3.816112822590185 0.29010146903283385)"><path d="M-0.31 -0.47 C2.44 0.32, 3.25 0.99, 7.35 0.81 M0.29 0.2 C2.68 0.17, 4.92 0.64, 7.94 1.05" stroke="#000000" stroke-width="1" fill="none"></path></g></g><g transform="translate(526.7266235037401 487.7044119102528) rotate(0 7.494210227874646 15.61293797473877)"><text x="0" y="22.22587594947759" font-family="Virgil, Segoe UI Emoji" font-size="24.980700759582074px" fill="#000000" text-anchor="start" style="white-space: pre;" direction="ltr">U</text></g><g stroke-linecap="round"><g transform="translate(528.1588803046586 512.1173694707535) rotate(0 8.289259394221688 1.425341906059316)"><path d="M-0.28 1.39 C3.27 0.51, 8.05 -0.21, 16.86 2.36 M-0.18 0.49 C6.33 1.18, 11.78 0.94, 15.31 1.85" stroke="#000000" stroke-width="1" fill="none"></path></g></g><g transform="translate(550.1103531574596 487.2044119102528) rotate(0 8.75 18.229166666666686)"><text x="0" y="25.45833333333332" font-family="Virgil, Segoe UI Emoji" font-size="29.166666666666664px" fill="#000000" text-anchor="start" style="white-space: pre;" direction="ltr">S</text></g><g stroke-linecap="round"><g transform="translate(551.1103531574596 503.7044119102528) rotate(0 9.386097100316363 0.3899587853638877)"><path d="M0.53 -0.81 C8.06 1.94, 14.9 1.97, 17.94 1.09 M0.61 0.15 C5.86 1.17, 12.72 0.31, 18.24 1.54" stroke="#000000" stroke-width="1" fill="none"></path></g></g><g stroke-linecap="round" transform="translate(647.1103531574597 492.70441191025293) rotate(0 2.365384615384528 2.365384615384528)"><path d="M-0.44 1.79 L6.5 1.48 L5.14 3.05 L-1.51 5.94" stroke="none" stroke-width="0" fill="#000"></path><path d="M0.29 0.36 C1.75 0.24, 2.98 -0.09, 5.02 0.42 M-0.17 0.21 C1.8 -0.16, 3.82 0, 4.87 -0.03 M4.72 -0.08 C5.03 1.54, 4.54 2.48, 5.09 5.08 M4.62 -0.05 C4.81 1.95, 4.85 3.83, 4.79 4.83 M5.18 5.2 C3.19 4.52, 2.14 4.78, 0.26 5.06 M4.78 4.55 C3.82 4.78, 2.51 4.56, -0.02 4.71 M0.16 4.93 C0.02 3.44, 0.08 1.42, -0.1 -0.23 M-0.21 4.72 C-0.19 3.26, 0.14 2.01, 0.09 -0.23" stroke="#000000" stroke-width="1" fill="none"></path></g><g stroke-linecap="round" transform="translate(647.1103531574597 500.5890272948684) rotate(0 2.365384615384528 2.365384615384528)"><path d="M1.77 1.48 L5.14 -1.68 L3.22 5.94 L0.26 3.21" stroke="none" stroke-width="0" fill="#000"></path><path d="M0.25 0.22 C1.19 -0.14, 2.7 0.38, 5.19 0.32 M-0.08 -0.16 C1.56 -0.03, 3.13 -0.08, 4.67 0.19 M4.99 0.23 C4.5 1.34, 5.09 3.29, 5.12 5.18 M4.77 0.14 C4.79 1.59, 4.77 2.86, 4.78 4.75 M4.71 4.55 C4.08 4.86, 2.81 5.1, -0.42 4.73 M4.82 4.75 C2.83 4.5, 1.37 4.68, 0.09 4.68 M0.01 5.03 C0.05 3.66, -0.11 2.61, -0.14 0.01 M-0.19 4.54 C0.18 3.55, 0.13 2.44, -0.05 0.21" stroke="#000000" stroke-width="1" fill="none"></path></g><g stroke-linecap="round" transform="translate(647.1103531574597 508.4736426794832) rotate(0 2.365384615384528 2.365384615384528)"><path d="M0.41 -1.68 L3.22 1.21 L4.99 3.21 L0.36 4.45" stroke="none" stroke-width="0" fill="#000"></path><path d="M-0.02 -0.11 C2.07 0.4, 4.02 0.29, 4.81 -0.35 M0.06 0.01 C1.98 0, 3.63 0.22, 4.76 0 M4.5 -0.13 C5.11 1.68, 5.15 3.12, 4.7 4.52 M4.81 0.21 C4.8 1.42, 4.79 2.67, 4.57 4.96 M5.18 4.81 C3.11 5.04, 0.54 4.71, 0.26 4.83 M4.51 4.54 C3.65 4.72, 2.68 4.69, -0.24 4.81 M0.07 4.6 C-0.1 2.89, -0.14 1.51, -0.39 -0.41 M0.14 4.58 C0.13 3.1, -0.01 2.15, 0.21 0.17" stroke="#000000" stroke-width="1" fill="none"></path></g><g stroke-linecap="round"><g transform="translate(655.2199174148261 496.7044119102528) rotate(0 10.35270623973338 0.4375479439315768)"><path d="M1.14 1.64 C8.21 1.28, 13.13 -1.32, 20.15 -0.65 M0.55 -0.13 C4.11 0.73, 8.75 -0.03, 18.34 0.5" stroke="#000000" stroke-width="2" fill="none"></path></g></g><g stroke-linecap="round"><g transform="translate(684.4393755772558 498.2044119102528) rotate(0 9.367872409173287 0.28838155924165676)"><path d="M1.8 1.24 C5.43 -1.53, 11.91 -0.82, 17.27 0.49 M-0.22 0.73 C5.74 0.01, 11.11 0.53, 18.96 -0.45" stroke="#000000" stroke-width="2" fill="none"></path></g></g><g stroke-linecap="round"><g transform="translate(654.4252456285642 503.51395834091) rotate(0 9.345498715701979 -0.1303299285005437)"><path d="M0.3 -1.37 C8.84 -0.78, 13.15 0.37, 18.59 1.1 M0.1 -0.02 C5.12 0.36, 11.03 -0.59, 18.25 0.7" stroke="#000000" stroke-width="2" fill="none"></path></g></g><g stroke-linecap="round"><g transform="translate(684.6944650517485 505.01395834091) rotate(0 9.509283664473287 0.054418238450352874)"><path d="M1.65 -0.65 C5.56 0.63, 13.67 1.24, 18.24 -0.44 M-0.16 0.5 C7.47 -0.44, 13.78 0.7, 19.18 0.76" stroke="#000000" stroke-width="2" fill="none"></path></g></g><g stroke-linecap="round"><g transform="translate(654.7280580057061 511.7044119102528) rotate(0 9.371613389207027 0.1101717756212679)"><path d="M-1.23 0.49 C4.27 1.17, 8.1 -0.37, 19.97 0.21 M0.46 -0.45 C5.26 0.6, 11.71 0.66, 19.37 -0.07" stroke="#000000" stroke-width="2" fill="none"></path></g></g><g stroke-linecap="round"><g transform="translate(682.7657385999394 513.2044119102528) rotate(0 9.104980957496423 0.38985250969420804)"><path d="M0.09 1.1 C4.63 -0.49, 11.27 0.16, 18.46 -0.33 M-0.25 0.7 C7.24 0.85, 13.98 0.02, 18.08 -0.19" stroke="#000000" stroke-width="2" fill="none"></path></g></g><g transform="translate(676.9907879400682 489.2044119102528) rotate(0 2.869565217391255 6)"><text x="0" y="10" font-family="Helvetica, Segoe UI Emoji" font-size="10.434782608695647px" fill="#000000" text-anchor="start" style="white-space: pre;" direction="ltr">1</text></g><g transform="translate(676.8603531574597 498.2044119102528) rotate(0 3 5.5)"><text x="0" y="9" font-family="Helvetica, Segoe UI Emoji" font-size="10.434782608695647px" fill="#000000" text-anchor="start" style="white-space: pre;" direction="ltr">2</text></g><g transform="translate(676.8603531574597 506.2044119102528) rotate(0 3 5.5)"><text x="0" y="9" font-family="Helvetica, Segoe UI Emoji" font-size="10.434782608695647px" fill="#000000" text-anchor="start" style="white-space: pre;" direction="ltr">3</text></g><g stroke-linecap="round"><g transform="translate(707.6103531574595 489.7044119102528) rotate(0 1.1494892626069486 15.746195300016552)"><path d="M1.09 0.98 C-0.81 8.48, 1.81 19.53, 2.14 30.88 M0.15 0.61 C0.35 9.37, 0.41 17.37, 0.71 29.09" stroke="#000000" stroke-width="2" fill="none"></path></g></g><g stroke-linecap="round"><g transform="translate(770.6103531574595 488.7044119102528) rotate(0 0.2348680067357236 14.700228794012219)"><path d="M-0.96 -0.55 C1.81 9.66, 2.08 18.26, 0.35 28.1 M0.34 0.89 C0.43 8.51, 0.53 16.3, -0.19 29.95" stroke="#000000" stroke-width="2" fill="none"></path></g></g><g stroke-linecap="round"><g transform="translate(715.6103531574597 503.0711886102655) rotate(0 10.428486854707899 2.5775774804470757)"><path d="M-0.33 0.9 C0.23 2.76, 1.79 8.47, 3.94 10.53 C6.09 12.59, 10.34 13.61, 12.59 13.27 C14.83 12.94, 15.97 10.44, 17.41 8.54 C18.84 6.64, 21.41 4.27, 21.19 1.88 C20.96 -0.51, 18.52 -4.11, 16.06 -5.81 C13.6 -7.5, 8.02 -7.82, 6.41 -8.3 M1.7 0.33 C2.12 1.92, 1.67 6.56, 3.45 8.93 C5.24 11.3, 10.09 14.45, 12.41 14.55 C14.73 14.64, 16.13 11.5, 17.37 9.51 C18.6 7.53, 20.37 5.29, 19.81 2.65 C19.26 0.02, 16.13 -4.28, 14.02 -6.29 C11.92 -8.3, 8.63 -8.95, 7.21 -9.39" stroke="#000000" stroke-width="2" fill="none"></path></g></g><g stroke-linecap="round"><g transform="translate(741.1103531574595 501.5711886102656) rotate(129.3042905445116 10.668880629215437 2.231208077691406)"><path d="M0.88 0.99 C1.64 2.41, 2.51 7.43, 4.18 9.46 C5.86 11.48, 8.59 13.11, 10.91 13.12 C13.24 13.13, 16.38 11.33, 18.13 9.51 C19.88 7.7, 21.77 4.86, 21.41 2.21 C21.04 -0.44, 18.46 -4.58, 15.95 -6.39 C13.45 -8.2, 8.14 -8.46, 6.36 -8.67 M-0.11 0.46 C0.61 2, 2.17 8.64, 3.83 10.95 C5.49 13.25, 7.42 14.91, 9.86 14.31 C12.31 13.71, 16.76 9.81, 18.48 7.34 C20.19 4.87, 20.92 1.92, 20.15 -0.5 C19.38 -2.92, 16.03 -5.6, 13.86 -7.17 C11.69 -8.75, 8.2 -9.93, 7.14 -9.96" stroke="#000000" stroke-width="2" fill="none"></path></g></g><g stroke-linecap="round"><g transform="translate(716.6344344031413 492.93651243377747) rotate(63.9300543003754 4.2614696510028125 4.187296504314531)" fill-rule="evenodd"><path d="M-0.3 1.35 L8.91 1.24 L5.32 9.11 L1.32 1.24" stroke="none" stroke-width="0" fill="#000" fill-rule="evenodd"></path><path d="M-0.06 -0.38 C2.97 0.05, 6.79 0.2, 9.15 0.21 M-0.29 0.4 C3.27 -0.03, 5.56 0.39, 8.47 0.23 M8.9 0.19 C6.23 3.44, 5.59 5.33, 3.83 8.34 M7.94 0.16 C7.5 2.46, 6.48 4.98, 4.46 8.31 M3.79 7.57 C3.41 5.52, 1.54 4.75, -0.62 0.36 M5.01 8.75 C3.78 6.35, 2.4 5.36, 0.06 -0.36 M0 0 C0 0, 0 0, 0 0 M0 0 C0 0, 0 0, 0 0" stroke="#000000" stroke-width="1" fill="none"></path></g></g><g stroke-linecap="round"><g transform="translate(758.6344344031413 495.4365124337776) rotate(324.54500313195155 3.894777402868499 4.180659548672338)" fill-rule="evenodd"><path d="M0.51 1.24 L9.14 0.71 L5.9 9.64 L-0.59 0.76" stroke="none" stroke-width="0" fill="#000" fill-rule="evenodd"></path><path d="M-0.17 0.13 C3.82 0.32, 7.37 0.25, 8.74 0.18 M0.41 -0.02 C2.44 0.32, 5.27 0.15, 8.69 -0.37 M7.71 0.34 C7.39 1.65, 5.41 4.97, 4.52 8.73 M8.59 0.01 C7.53 2.43, 6.05 4.63, 4.36 8.27 M4.54 7.63 C2.51 6.4, 1.26 3.65, -0.95 -0.21 M4.68 8 C2.36 5.45, 1 1.52, 0.09 -0.07 M0 0 C0 0, 0 0, 0 0 M0 0 C0 0, 0 0, 0 0" stroke="#000000" stroke-width="1" fill="none"></path></g></g><g stroke-linecap="round" transform="translate(779.1103531574595 492.2044119102527) rotate(0 14.75 12)"><path d="M0.74 0.71 L30.82 1.24 L28.91 24.76 L1.56 23.44" stroke="none" stroke-width="0" fill="#fff"></path><path d="M1.22 0.67 C9.29 0.45, 15.84 0.37, 29.68 -1.38 M-0.38 0.94 C11.82 0.57, 24 -0.87, 29.49 0.54 M29.68 -1.89 C27.7 7.55, 29.18 16.09, 29.1 22.01 M30.12 0.14 C29.33 7.81, 29.12 15.74, 29.52 23.17 M27.91 25.21 C21.91 24.52, 14.94 23.32, 1.79 25.77 M28.74 24.6 C18.6 22.99, 7.63 23.61, -0.49 23.79 M0.01 23.42 C1.6 19.64, 1.33 10.95, -1.63 0.94 M0.28 23.86 C-0.64 14.55, 0 5.58, 0.25 0.62" stroke="#000000" stroke-width="1" fill="none"></path></g><g stroke-linecap="round"><g transform="translate(780.1103531574595 515.7044119102527) rotate(0 14.490338170921063 -7.08071579380902)" fill-rule="evenodd"><path d="M1.38 -1.77 L8.98 -8.92 L15.4 -1.49 L21.74 -14.82 L24.74 -10.06 L28.55 -3.54 L28.72 -0.4 L20.81 1.73 L0.83 0.03" stroke="none" stroke-width="0" fill="#000" fill-rule="evenodd"></path><path d="M0.4 1.06 C1.92 -0.64, 6.82 -9.36, 9.3 -9.52 C11.77 -9.67, 13.44 0.83, 15.25 0.11 C17.06 -0.61, 17.85 -13.83, 20.17 -13.86 C22.49 -13.89, 32.62 -2.56, 29.18 -0.06 C25.74 2.44, 4.38 1.01, -0.45 1.13 M-0.84 0.58 C0.53 -1.56, 5.93 -11.54, 8.51 -11.38 C11.08 -11.23, 12.71 2.22, 14.62 1.49 C16.53 0.75, 17.7 -15.62, 19.98 -15.82 C22.26 -16.01, 31.54 -2.45, 28.33 0.3 C25.12 3.05, 5.29 0.79, 0.72 0.68" stroke="#000000" stroke-width="1" fill="none"></path></g></g><g stroke-linecap="round" transform="translate(782.6103531574595 495.7044119102527) rotate(0 3 3)"><path d="M2.07 -0.91 C2.69 -1.08, 3.58 -0.59, 4.32 0.01 C5.06 0.62, 6.15 2.15, 6.52 2.75 C6.89 3.35, 6.97 3.07, 6.52 3.6 C6.08 4.14, 4.34 5.67, 3.86 5.96 C3.39 6.25, 4.09 5.44, 3.66 5.34 C3.24 5.24, 1.94 5.85, 1.3 5.36 C0.67 4.87, -0.03 3.12, -0.13 2.41 C-0.24 1.7, 0.09 1.44, 0.67 1.09 C1.25 0.73, 2.84 0.38, 3.34 0.27 C3.85 0.16, 3.73 0.31, 3.68 0.43 M5.08 -0.28 C5.61 -0.28, 4.51 0.54, 4.7 1.06 C4.89 1.57, 6.19 2.08, 6.21 2.8 C6.23 3.52, 5.18 4.61, 4.81 5.38 C4.43 6.16, 4.33 7.33, 3.96 7.45 C3.59 7.58, 2.99 6.62, 2.58 6.13 C2.17 5.65, 2.02 5.15, 1.49 4.55 C0.96 3.96, -0.77 3.2, -0.59 2.56 C-0.4 1.93, 1.95 1.2, 2.59 0.73 C3.23 0.25, 3.15 -0.19, 3.26 -0.28 C3.36 -0.37, 2.96 0.21, 3.2 0.21" stroke="none" stroke-width="0" fill="#000"></path><path d="M4.27 1 C4.85 1.08, 4.66 0.21, 5.11 0.54 C5.55 0.87, 6.79 2.14, 6.93 2.96 C7.08 3.78, 6.66 4.96, 5.98 5.45 C5.3 5.94, 3.47 5.83, 2.84 5.9 C2.21 5.98, 2.78 6.12, 2.22 5.9 C1.67 5.68, -0.15 5.37, -0.49 4.59 C-0.82 3.81, 0.04 1.92, 0.2 1.23 C0.37 0.54, -0.09 0.57, 0.51 0.44 C1.12 0.32, 3.21 0.67, 3.83 0.5 C4.45 0.33, 4.17 -0.62, 4.22 -0.57 M2.62 -0.3 C2.95 -0.45, 3.66 0.02, 4.22 0.28 C4.78 0.54, 5.98 0.56, 5.99 1.26 C6 1.95, 4.82 3.89, 4.29 4.45 C3.76 5.01, 3.04 4.57, 2.8 4.63 C2.57 4.7, 3.17 5.11, 2.86 4.84 C2.55 4.56, 1.48 3.17, 0.96 2.99 C0.44 2.82, -0.53 4, -0.28 3.81 C-0.04 3.61, 1.81 2.64, 2.42 1.8 C3.02 0.95, 3.41 -1.12, 3.32 -1.26 C3.24 -1.4, 1.9 0.9, 1.89 0.97" stroke="#000000" stroke-width="1" fill="none"></path></g><g stroke-linecap="round" transform="translate(815.6103531574595 490.7044119102527) rotate(0 12.75 12.75)"><path d="M10.38 -0.07 C13.06 -0.38, 17.27 1.25, 19.76 2.6 C22.25 3.94, 24.61 5.54, 25.31 8.01 C26.02 10.48, 24.82 14.92, 23.97 17.43 C23.13 19.94, 22.38 21.7, 20.25 23.07 C18.11 24.43, 14.04 26.08, 11.16 25.61 C8.28 25.14, 4.8 22.41, 2.95 20.27 C1.11 18.13, 0 15.32, 0.1 12.77 C0.2 10.21, 1.53 6.99, 3.55 4.94 C5.57 2.88, 10.62 1.09, 12.22 0.42 C13.83 -0.25, 13.18 0.82, 13.19 0.92 M14.31 -0.12 C16.73 0.18, 21.04 1.89, 22.87 4.09 C24.7 6.29, 25.23 10.02, 25.29 13.09 C25.35 16.17, 24.76 20.37, 23.24 22.54 C21.73 24.71, 18.8 25.75, 16.2 26.1 C13.6 26.45, 10.38 25.98, 7.64 24.62 C4.9 23.25, 0.79 20.55, -0.22 17.9 C-1.24 15.25, 0.54 11.51, 1.56 8.72 C2.58 5.94, 3.73 2.61, 5.87 1.2 C8.02 -0.22, 12.77 0.48, 14.45 0.23 C16.13 -0.01, 15.72 -0.61, 15.97 -0.27" stroke="none" stroke-width="0" fill="#fff"></path><path d="M8.38 0.38 C10.76 -0.79, 15.42 -0.17, 18.09 0.95 C20.75 2.07, 23.31 4.76, 24.37 7.1 C25.42 9.44, 24.9 12.38, 24.41 14.99 C23.93 17.6, 23.53 20.93, 21.46 22.74 C19.38 24.56, 14.77 26.07, 11.97 25.87 C9.16 25.67, 6.71 23.39, 4.61 21.55 C2.52 19.72, -0.13 17.33, -0.62 14.86 C-1.12 12.38, -0.15 9.31, 1.66 6.7 C3.46 4.1, 8.35 0.23, 10.21 -0.78 C12.06 -1.78, 12.72 0.2, 12.79 0.67 M12.93 -0.4 C15.61 -0.54, 19.78 0.39, 21.65 2.35 C23.52 4.31, 24.05 8.64, 24.13 11.37 C24.21 14.09, 23.27 16.59, 22.11 18.7 C20.94 20.81, 19.49 23.33, 17.15 24.03 C14.82 24.73, 10.82 23.63, 8.12 22.9 C5.42 22.17, 2.02 21.69, 0.95 19.67 C-0.12 17.65, 0.94 13.84, 1.71 10.76 C2.48 7.67, 3.77 2.8, 5.57 1.16 C7.38 -0.47, 11.15 1.27, 12.52 0.94 C13.9 0.6, 13.61 -0.88, 13.83 -0.86" stroke="#000000" stroke-width="1" fill="none"></path></g><g stroke-linecap="round" transform="translate(822.1103531574595 499.2044119102527) rotate(0 1.25 1.25)"><path d="M1.43 1.12 C1.75 1, 2.14 -0.17, 2.14 -0.2 C2.14 -0.23, 1.19 0.8, 1.41 0.94 C1.64 1.08, 3.27 0.41, 3.48 0.64 C3.68 0.88, 3.01 2.18, 2.65 2.35 C2.28 2.53, 1.62 1.72, 1.3 1.69 C0.97 1.66, 0.78 2.13, 0.69 2.17 C0.6 2.2, 0.74 2.07, 0.74 1.9 C0.74 1.73, 0.64 1.35, 0.71 1.16 C0.77 0.97, 0.99 0.99, 1.12 0.76 C1.26 0.53, 1.51 -0.26, 1.52 -0.22 M1.31 -0.59 C1.67 -0.56, 1.37 -0.13, 1.7 0.35 C2.03 0.84, 2.93 1.96, 3.28 2.32 C3.63 2.67, 3.83 2.32, 3.82 2.48 C3.82 2.64, 3.89 3.11, 3.26 3.27 C2.63 3.43, 0.44 3.56, 0.06 3.43 C-0.32 3.31, 1.11 2.96, 0.99 2.52 C0.87 2.08, -0.43 1.14, -0.66 0.79 C-0.89 0.43, -0.81 0.67, -0.37 0.42 C0.06 0.17, 1.54 -0.8, 1.95 -0.73 C2.36 -0.66, 2.43 0.86, 2.1 0.83" stroke="none" stroke-width="0" fill="#fff"></path><path d="M2.78 0.32 C3.11 0.6, 3.17 1.26, 2.97 1.47 C2.76 1.69, 1.64 1.46, 1.55 1.63 C1.47 1.8, 2.65 2.31, 2.45 2.51 C2.25 2.72, 0.67 3.09, 0.33 2.86 C-0.01 2.63, 0.6 1.41, 0.41 1.14 C0.22 0.87, -0.77 1.27, -0.81 1.22 C-0.84 1.17, -0.07 1.2, 0.2 0.84 C0.46 0.47, 0.43 -0.94, 0.79 -0.97 C1.15 -0.99, 2.13 0.34, 2.35 0.68 C2.58 1.01, 2.21 1.14, 2.17 1.04 M1.15 -1.23 C1.31 -1.21, 0.63 -0.01, 0.65 0.15 C0.67 0.31, 0.81 -0.39, 1.25 -0.28 C1.69 -0.18, 3.11 0.59, 3.3 0.79 C3.48 0.98, 2.81 0.38, 2.36 0.89 C1.91 1.39, 0.74 3.44, 0.61 3.81 C0.48 4.17, 1.62 3.74, 1.57 3.09 C1.51 2.44, 0.7 0.2, 0.31 -0.1 C-0.08 -0.4, -0.95 1.46, -0.78 1.28 C-0.61 1.11, 0.96 -0.89, 1.32 -1.14 C1.68 -1.38, 1.55 -0.34, 1.4 -0.18" stroke="#000000" stroke-width="1" fill="none"></path></g><g stroke-linecap="round" transform="translate(831.1103531574595 499.2044119102527) rotate(0 1.25 1.25)"><path d="M1.71 -0.21 C1.69 -0.35, 0.81 0.59, 1.09 0.66 C1.38 0.73, 3.12 0, 3.41 0.22 C3.71 0.44, 3.16 1.77, 2.87 1.99 C2.59 2.21, 2 1.5, 1.7 1.55 C1.41 1.61, 1.22 2.2, 1.09 2.32 C0.96 2.44, 1.02 2.4, 0.95 2.28 C0.87 2.15, 0.67 1.78, 0.62 1.58 C0.58 1.38, 0.48 1.39, 0.67 1.08 C0.87 0.77, 1.63 -0.25, 1.8 -0.29 C1.96 -0.34, 1.81 0.83, 1.67 0.8 M0.9 0.17 C1.25 0.47, 2.29 1.41, 2.78 1.66 C3.27 1.91, 3.69 1.49, 3.86 1.66 C4.03 1.82, 4.32 2.39, 3.82 2.66 C3.32 2.94, 1.23 3.28, 0.88 3.33 C0.52 3.38, 1.9 3.26, 1.69 2.97 C1.47 2.68, -0.02 1.87, -0.41 1.57 C-0.81 1.28, -0.96 1.5, -0.69 1.18 C-0.42 0.86, 0.74 -0.29, 1.21 -0.35 C1.68 -0.42, 2.33 0.91, 2.13 0.8 C1.92 0.69, 0.22 -1.12, -0.03 -1.01" stroke="none" stroke-width="0" fill="#fff"></path><path d="M1.57 0.71 C1.51 0.62, 0.74 0.1, 0.98 0.15 C1.21 0.2, 2.84 0.69, 2.96 1.01 C3.08 1.32, 1.85 1.97, 1.68 2.03 C1.52 2.09, 2.22 1.32, 1.98 1.38 C1.74 1.45, 0.53 2.24, 0.24 2.42 C-0.05 2.59, 0.3 2.78, 0.23 2.43 C0.16 2.07, -0.26 0.53, -0.2 0.27 C-0.13 0.01, 0.38 0.82, 0.62 0.87 C0.86 0.93, 1.09 0.81, 1.26 0.62 C1.42 0.44, 1.65 -0.06, 1.61 -0.22 M-0.23 -0.05 C-0.19 -0.1, 0.11 -0.99, 0.7 -1.01 C1.3 -1.02, 2.96 -0.32, 3.34 -0.12 C3.72 0.08, 3.28 -0.41, 2.98 0.22 C2.67 0.86, 1.62 3.14, 1.51 3.7 C1.4 4.26, 2.48 4.07, 2.33 3.58 C2.17 3.09, 1.15 1.01, 0.57 0.76 C0 0.52, -1.12 2.37, -1.13 2.12 C-1.14 1.87, 0.1 -0.34, 0.51 -0.72 C0.92 -1.11, 1.37 -0.27, 1.34 -0.2 C1.31 -0.13, 0.48 -0.29, 0.34 -0.28" stroke="#000000" stroke-width="1" fill="none"></path></g><g stroke-linecap="round"><g transform="translate(818.6103531574595 505.7044119102527) rotate(0 8.639478803556358 2.0857060464806523)"><path d="M-0.45 1.13 C0.22 1.92, 2.49 4.28, 5.2 4.67 C7.92 5.05, 13.78 3.94, 15.83 3.44 C17.88 2.93, 17.17 2.2, 17.49 1.65 M1.51 0.68 C1.94 1.12, 2.03 2.31, 4.36 2.89 C6.69 3.48, 13.27 4.77, 15.5 4.2 C17.72 3.62, 17.58 0.13, 17.73 -0.57" stroke="#000000" stroke-width="1" fill="none"></path></g></g><g stroke-linecap="round" transform="translate(715.4349140001118 319.1710759110554) rotate(0 63.9419178660695 38.268516949888834)"><path d="M-1.77 -0.02 C41.61 -0.48, 79.56 -0.14, 128.06 -1.89 M0.36 -0.2 C27.01 0.43, 56.42 0.1, 128.51 0.14 M127.3 0.04 C126.07 19.17, 127.64 40.21, 126.29 77.74 M127.66 0.9 C129.06 18.71, 128.38 35.11, 127.13 77.14 M127.6 75.56 C87.44 76.02, 47.43 74.78, 0.01 75.96 M127.66 75.72 C80.04 78.33, 30.62 77.82, 0.28 76.4 M1.35 77.04 C1.17 60.42, 0.64 44.14, 1.24 -0.59 M-0.56 76.31 C-0.44 50.28, -0.74 24.94, 0.56 0.97" stroke="#000000" stroke-width="1" fill="none"></path></g><g stroke-linecap="round"><g transform="translate(714.3593162492166 329.8876103032996) rotate(0 64.21393740000951 -0.7563711861055253)"><path d="M-1.06 -0.01 C20.41 -0.11, 107.99 0.17, 129.49 0.24 M0.58 -1.06 C21.89 -1.62, 107.25 -1.65, 128.88 -1.75" stroke="#000000" stroke-width="1" fill="none"></path></g></g><g stroke-linecap="round" transform="translate(719.9229494690667 323.44264571106424) rotate(0 2.5009765625 2.5009765625)"><path d="M5 2.5 C5 2.65, 4.99 2.79, 4.96 2.94 C4.94 3.08, 4.9 3.22, 4.85 3.36 C4.8 3.49, 4.74 3.63, 4.67 3.75 C4.59 3.88, 4.51 4, 4.42 4.11 C4.32 4.22, 4.22 4.32, 4.11 4.42 C4 4.51, 3.88 4.59, 3.75 4.67 C3.63 4.74, 3.49 4.8, 3.36 4.85 C3.22 4.9, 3.08 4.94, 2.94 4.96 C2.79 4.99, 2.65 5, 2.5 5 C2.36 5, 2.21 4.99, 2.07 4.96 C1.92 4.94, 1.78 4.9, 1.65 4.85 C1.51 4.8, 1.38 4.74, 1.25 4.67 C1.13 4.59, 1 4.51, 0.89 4.42 C0.78 4.32, 0.68 4.22, 0.59 4.11 C0.49 4, 0.41 3.88, 0.34 3.75 C0.26 3.63, 0.2 3.49, 0.15 3.36 C0.1 3.22, 0.06 3.08, 0.04 2.94 C0.01 2.79, 0 2.65, 0 2.5 C0 2.36, 0.01 2.21, 0.04 2.07 C0.06 1.92, 0.1 1.78, 0.15 1.65 C0.2 1.51, 0.26 1.38, 0.34 1.25 C0.41 1.13, 0.49 1, 0.59 0.89 C0.68 0.78, 0.78 0.68, 0.89 0.59 C1 0.49, 1.13 0.41, 1.25 0.34 C1.38 0.26, 1.51 0.2, 1.65 0.15 C1.78 0.1, 1.92 0.06, 2.07 0.04 C2.21 0.01, 2.36 0, 2.5 0 C2.65 0, 2.79 0.01, 2.94 0.04 C3.08 0.06, 3.22 0.1, 3.36 0.15 C3.49 0.2, 3.63 0.26, 3.75 0.34 C3.88 0.41, 4 0.49, 4.11 0.59 C4.22 0.68, 4.32 0.78, 4.42 0.89 C4.51 1, 4.59 1.13, 4.67 1.25 C4.74 1.38, 4.8 1.51, 4.85 1.65 C4.9 1.78, 4.94 1.92, 4.96 2.07 C4.99 2.21, 5 2.43, 5 2.5 C5.01 2.57, 5.01 2.43, 5 2.5" stroke="none" stroke-width="0" fill="#fa5252"></path><path d="M5 2.5 C5 2.65, 4.99 2.79, 4.96 2.94 C4.94 3.08, 4.9 3.22, 4.85 3.36 C4.8 3.49, 4.74 3.63, 4.67 3.75 C4.59 3.88, 4.51 4, 4.42 4.11 C4.32 4.22, 4.22 4.32, 4.11 4.42 C4 4.51, 3.88 4.59, 3.75 4.67 C3.63 4.74, 3.49 4.8, 3.36 4.85 C3.22 4.9, 3.08 4.94, 2.94 4.96 C2.79 4.99, 2.65 5, 2.5 5 C2.36 5, 2.21 4.99, 2.07 4.96 C1.92 4.94, 1.78 4.9, 1.65 4.85 C1.51 4.8, 1.38 4.74, 1.25 4.67 C1.13 4.59, 1 4.51, 0.89 4.42 C0.78 4.32, 0.68 4.22, 0.59 4.11 C0.49 4, 0.41 3.88, 0.34 3.75 C0.26 3.63, 0.2 3.49, 0.15 3.36 C0.1 3.22, 0.06 3.08, 0.04 2.94 C0.01 2.79, 0 2.65, 0 2.5 C0 2.36, 0.01 2.21, 0.04 2.07 C0.06 1.92, 0.1 1.78, 0.15 1.65 C0.2 1.51, 0.26 1.38, 0.34 1.25 C0.41 1.13, 0.49 1, 0.59 0.89 C0.68 0.78, 0.78 0.68, 0.89 0.59 C1 0.49, 1.13 0.41, 1.25 0.34 C1.38 0.26, 1.51 0.2, 1.65 0.15 C1.78 0.1, 1.92 0.06, 2.07 0.04 C2.21 0.01, 2.36 0, 2.5 0 C2.65 0, 2.79 0.01, 2.94 0.04 C3.08 0.06, 3.22 0.1, 3.36 0.15 C3.49 0.2, 3.63 0.26, 3.75 0.34 C3.88 0.41, 4 0.49, 4.11 0.59 C4.22 0.68, 4.32 0.78, 4.42 0.89 C4.51 1, 4.59 1.13, 4.67 1.25 C4.74 1.38, 4.8 1.51, 4.85 1.65 C4.9 1.78, 4.94 1.92, 4.96 2.07 C4.99 2.21, 5 2.43, 5 2.5 C5.01 2.57, 5.01 2.43, 5 2.5" stroke="#000000" stroke-width="1" fill="none"></path></g><g stroke-linecap="round" transform="translate(730.1856447815667 323.44264571106424) rotate(0 2.5009765625 2.5009765625)"><path d="M5 2.5 C5 2.65, 4.99 2.79, 4.96 2.94 C4.94 3.08, 4.9 3.22, 4.85 3.36 C4.8 3.49, 4.74 3.63, 4.67 3.75 C4.59 3.88, 4.51 4, 4.42 4.11 C4.32 4.22, 4.22 4.32, 4.11 4.42 C4 4.51, 3.88 4.59, 3.75 4.67 C3.63 4.74, 3.49 4.8, 3.36 4.85 C3.22 4.9, 3.08 4.94, 2.94 4.96 C2.79 4.99, 2.65 5, 2.5 5 C2.36 5, 2.21 4.99, 2.07 4.96 C1.92 4.94, 1.78 4.9, 1.65 4.85 C1.51 4.8, 1.38 4.74, 1.25 4.67 C1.13 4.59, 1 4.51, 0.89 4.42 C0.78 4.32, 0.68 4.22, 0.59 4.11 C0.49 4, 0.41 3.88, 0.34 3.75 C0.26 3.63, 0.2 3.49, 0.15 3.36 C0.1 3.22, 0.06 3.08, 0.04 2.94 C0.01 2.79, 0 2.65, 0 2.5 C0 2.36, 0.01 2.21, 0.04 2.07 C0.06 1.92, 0.1 1.78, 0.15 1.65 C0.2 1.51, 0.26 1.38, 0.34 1.25 C0.41 1.13, 0.49 1, 0.59 0.89 C0.68 0.78, 0.78 0.68, 0.89 0.59 C1 0.49, 1.13 0.41, 1.25 0.34 C1.38 0.26, 1.51 0.2, 1.65 0.15 C1.78 0.1, 1.92 0.06, 2.07 0.04 C2.21 0.01, 2.36 0, 2.5 0 C2.65 0, 2.79 0.01, 2.94 0.04 C3.08 0.06, 3.22 0.1, 3.36 0.15 C3.49 0.2, 3.63 0.26, 3.75 0.34 C3.88 0.41, 4 0.49, 4.11 0.59 C4.22 0.68, 4.32 0.78, 4.42 0.89 C4.51 1, 4.59 1.13, 4.67 1.25 C4.74 1.38, 4.8 1.51, 4.85 1.65 C4.9 1.78, 4.94 1.92, 4.96 2.07 C4.99 2.21, 5 2.43, 5 2.5 C5.01 2.57, 5.01 2.43, 5 2.5" stroke="none" stroke-width="0" fill="#fab005"></path><path d="M5 2.5 C5 2.65, 4.99 2.79, 4.96 2.94 C4.94 3.08, 4.9 3.22, 4.85 3.36 C4.8 3.49, 4.74 3.63, 4.67 3.75 C4.59 3.88, 4.51 4, 4.42 4.11 C4.32 4.22, 4.22 4.32, 4.11 4.42 C4 4.51, 3.88 4.59, 3.75 4.67 C3.63 4.74, 3.49 4.8, 3.36 4.85 C3.22 4.9, 3.08 4.94, 2.94 4.96 C2.79 4.99, 2.65 5, 2.5 5 C2.36 5, 2.21 4.99, 2.07 4.96 C1.92 4.94, 1.78 4.9, 1.65 4.85 C1.51 4.8, 1.38 4.74, 1.25 4.67 C1.13 4.59, 1 4.51, 0.89 4.42 C0.78 4.32, 0.68 4.22, 0.59 4.11 C0.49 4, 0.41 3.88, 0.34 3.75 C0.26 3.63, 0.2 3.49, 0.15 3.36 C0.1 3.22, 0.06 3.08, 0.04 2.94 C0.01 2.79, 0 2.65, 0 2.5 C0 2.36, 0.01 2.21, 0.04 2.07 C0.06 1.92, 0.1 1.78, 0.15 1.65 C0.2 1.51, 0.26 1.38, 0.34 1.25 C0.41 1.13, 0.49 1, 0.59 0.89 C0.68 0.78, 0.78 0.68, 0.89 0.59 C1 0.49, 1.13 0.41, 1.25 0.34 C1.38 0.26, 1.51 0.2, 1.65 0.15 C1.78 0.1, 1.92 0.06, 2.07 0.04 C2.21 0.01, 2.36 0, 2.5 0 C2.65 0, 2.79 0.01, 2.94 0.04 C3.08 0.06, 3.22 0.1, 3.36 0.15 C3.49 0.2, 3.63 0.26, 3.75 0.34 C3.88 0.41, 4 0.49, 4.11 0.59 C4.22 0.68, 4.32 0.78, 4.42 0.89 C4.51 1, 4.59 1.13, 4.67 1.25 C4.74 1.38, 4.8 1.51, 4.85 1.65 C4.9 1.78, 4.94 1.92, 4.96 2.07 C4.99 2.21, 5 2.43, 5 2.5 C5.01 2.57, 5.01 2.43, 5 2.5" stroke="#000000" stroke-width="1" fill="none"></path></g><g stroke-linecap="round" transform="translate(740.8990612479129 323.89336686491043) rotate(0 2.5009765625 2.5009765625)"><path d="M5 2.5 C5 2.65, 4.99 2.79, 4.96 2.94 C4.94 3.08, 4.9 3.22, 4.85 3.36 C4.8 3.49, 4.74 3.63, 4.67 3.75 C4.59 3.88, 4.51 4, 4.42 4.11 C4.32 4.22, 4.22 4.32, 4.11 4.42 C4 4.51, 3.88 4.59, 3.75 4.67 C3.63 4.74, 3.49 4.8, 3.36 4.85 C3.22 4.9, 3.08 4.94, 2.94 4.96 C2.79 4.99, 2.65 5, 2.5 5 C2.36 5, 2.21 4.99, 2.07 4.96 C1.92 4.94, 1.78 4.9, 1.65 4.85 C1.51 4.8, 1.38 4.74, 1.25 4.67 C1.13 4.59, 1 4.51, 0.89 4.42 C0.78 4.32, 0.68 4.22, 0.59 4.11 C0.49 4, 0.41 3.88, 0.34 3.75 C0.26 3.63, 0.2 3.49, 0.15 3.36 C0.1 3.22, 0.06 3.08, 0.04 2.94 C0.01 2.79, 0 2.65, 0 2.5 C0 2.36, 0.01 2.21, 0.04 2.07 C0.06 1.92, 0.1 1.78, 0.15 1.65 C0.2 1.51, 0.26 1.38, 0.34 1.25 C0.41 1.13, 0.49 1, 0.59 0.89 C0.68 0.78, 0.78 0.68, 0.89 0.59 C1 0.49, 1.13 0.41, 1.25 0.34 C1.38 0.26, 1.51 0.2, 1.65 0.15 C1.78 0.1, 1.92 0.06, 2.07 0.04 C2.21 0.01, 2.36 0, 2.5 0 C2.65 0, 2.79 0.01, 2.94 0.04 C3.08 0.06, 3.22 0.1, 3.36 0.15 C3.49 0.2, 3.63 0.26, 3.75 0.34 C3.88 0.41, 4 0.49, 4.11 0.59 C4.22 0.68, 4.32 0.78, 4.42 0.89 C4.51 1, 4.59 1.13, 4.67 1.25 C4.74 1.38, 4.8 1.51, 4.85 1.65 C4.9 1.78, 4.94 1.92, 4.96 2.07 C4.99 2.21, 5 2.43, 5 2.5 C5.01 2.57, 5.01 2.43, 5 2.5" stroke="none" stroke-width="0" fill="#40c057"></path><path d="M5 2.5 C5 2.65, 4.99 2.79, 4.96 2.94 C4.94 3.08, 4.9 3.22, 4.85 3.36 C4.8 3.49, 4.74 3.63, 4.67 3.75 C4.59 3.88, 4.51 4, 4.42 4.11 C4.32 4.22, 4.22 4.32, 4.11 4.42 C4 4.51, 3.88 4.59, 3.75 4.67 C3.63 4.74, 3.49 4.8, 3.36 4.85 C3.22 4.9, 3.08 4.94, 2.94 4.96 C2.79 4.99, 2.65 5, 2.5 5 C2.36 5, 2.21 4.99, 2.07 4.96 C1.92 4.94, 1.78 4.9, 1.65 4.85 C1.51 4.8, 1.38 4.74, 1.25 4.67 C1.13 4.59, 1 4.51, 0.89 4.42 C0.78 4.32, 0.68 4.22, 0.59 4.11 C0.49 4, 0.41 3.88, 0.34 3.75 C0.26 3.63, 0.2 3.49, 0.15 3.36 C0.1 3.22, 0.06 3.08, 0.04 2.94 C0.01 2.79, 0 2.65, 0 2.5 C0 2.36, 0.01 2.21, 0.04 2.07 C0.06 1.92, 0.1 1.78, 0.15 1.65 C0.2 1.51, 0.26 1.38, 0.34 1.25 C0.41 1.13, 0.49 1, 0.59 0.89 C0.68 0.78, 0.78 0.68, 0.89 0.59 C1 0.49, 1.13 0.41, 1.25 0.34 C1.38 0.26, 1.51 0.2, 1.65 0.15 C1.78 0.1, 1.92 0.06, 2.07 0.04 C2.21 0.01, 2.36 0, 2.5 0 C2.65 0, 2.79 0.01, 2.94 0.04 C3.08 0.06, 3.22 0.1, 3.36 0.15 C3.49 0.2, 3.63 0.26, 3.75 0.34 C3.88 0.41, 4 0.49, 4.11 0.59 C4.22 0.68, 4.32 0.78, 4.42 0.89 C4.51 1, 4.59 1.13, 4.67 1.25 C4.74 1.38, 4.8 1.51, 4.85 1.65 C4.9 1.78, 4.94 1.92, 4.96 2.07 C4.99 2.21, 5 2.43, 5 2.5 C5.01 2.57, 5.01 2.43, 5 2.5" stroke="#000000" stroke-width="1" fill="none"></path></g><g stroke-opacity="0.9" fill-opacity="0.9" stroke-linecap="round" transform="translate(756.9261222375399 339.9457357429263) rotate(0 21.360101269687902 21.360101269687874)"><path d="M19.73 0.73 C24.23 0.24, 30.39 2.07, 34.18 4.71 C37.97 7.35, 41.28 12.12, 42.46 16.56 C43.63 21, 43.33 27.24, 41.21 31.35 C39.1 35.47, 33.91 39.55, 29.74 41.26 C25.58 42.97, 20.68 42.97, 16.24 41.61 C11.8 40.24, 5.75 36.88, 3.09 33.06 C0.43 29.25, -0.27 23.21, 0.28 18.71 C0.83 14.22, 2.32 9.02, 6.39 6.09 C10.46 3.17, 20.91 1.82, 24.69 1.15 C28.47 0.48, 29.06 1.77, 29.07 2.06 M15.33 0.36 C19.16 -1.46, 24.85 -1.09, 29.01 0.89 C33.16 2.87, 38.18 7.94, 40.26 12.27 C42.34 16.6, 42.33 22.76, 41.49 26.89 C40.66 31.03, 38.91 34.54, 35.24 37.1 C31.58 39.65, 23.98 42.46, 19.49 42.23 C15 42, 11.28 38.6, 8.31 35.74 C5.33 32.87, 2.74 29.55, 1.65 25.05 C0.57 20.55, -0.37 12.65, 1.8 8.74 C3.98 4.83, 12.75 2.93, 14.69 1.61 C16.64 0.28, 13.35 0.37, 13.5 0.77" stroke="none" stroke-width="0" fill="#04aaf7"></path><path d="M22.23 -0.05 C26.8 -0.03, 32.94 2.26, 36.16 5.42 C39.37 8.58, 40.94 14.34, 41.54 18.92 C42.15 23.49, 41.98 29.03, 39.79 32.85 C37.6 36.68, 32.88 40.54, 28.4 41.88 C23.92 43.21, 17.32 42.71, 12.91 40.89 C8.5 39.06, 3.99 35.09, 1.93 30.93 C-0.13 26.76, -0.4 20.33, 0.53 15.9 C1.46 11.48, 3.56 7.1, 7.49 4.37 C11.43 1.63, 20.72 0.12, 24.14 -0.49 C27.56 -1.11, 27.88 0.35, 28.02 0.67 M20.1 0.44 C23.96 -0.73, 28.16 -0.07, 31.93 2.45 C35.71 4.96, 41.45 10.92, 42.76 15.54 C44.07 20.17, 41.81 26.16, 39.78 30.2 C37.76 34.24, 34.59 37.87, 30.63 39.77 C26.66 41.66, 20.47 42.76, 16 41.55 C11.54 40.35, 6.52 36.19, 3.86 32.53 C1.2 28.86, -0.48 23.64, 0.05 19.57 C0.59 15.49, 3.75 11.37, 7.07 8.07 C10.39 4.78, 18.16 0.93, 19.96 -0.21 C21.75 -1.34, 17.7 1.01, 17.82 1.26" stroke="#000000" stroke-width="1" fill="none"></path></g><g stroke-linecap="round"><g transform="translate(784.0042862995156 356.1700878073839) rotate(0 -3.4669568227483296 6.479860744560767)" fill-rule="evenodd"><path d="M0 0 L-1.83 -0.41 L-7.57 -6.27 L-9.75 -6.1 L-11.36 -4.35 L-12.61 2.37 L-11.27 6.74 L-17.42 8.89 L-18 11.42 L-17.2 13.64 L-15.01 14.04 L-12.38 13.35 L-8.7 9.48 L-3.62 17.87 L-1.49 19.38 L-0.42 18.17 L-3.78 4.8 L-1.52 3.64 L1.39 4.35 L3.16 5.87 L6.21 6.29 L9.24 5.87 L10.81 3.22 L10.8 0.63 L4.22 1.11 L5.49 -5.76 L4.23 -6.26 L2.47 -5.35 L-0.24 -0.92 L0 0" stroke="none" stroke-width="0" fill="#40c057" fill-rule="evenodd"></path><path d="M0 0 C-0.31 -0.07, -0.57 0.63, -1.83 -0.41 C-3.09 -1.46, -5.98 -5.62, -7.57 -6.27 C-9.16 -6.93, -10.52 -5.79, -11.36 -4.35 C-12.2 -2.91, -12.63 0.53, -12.61 2.37 C-12.6 4.22, -10.47 5.65, -11.27 6.74 C-12.07 7.83, -16.44 7.74, -17.42 8.89 C-18.41 10.04, -18.04 12.9, -17.2 13.64 C-16.36 14.39, -13.8 14.04, -12.38 13.35 C-10.96 12.66, -10.16 8.72, -8.7 9.48 C-7.24 10.23, -5 16.42, -3.62 17.87 C-2.24 19.32, -0.39 20.35, -0.42 18.17 C-0.44 15.99, -4.08 7.1, -3.78 4.8 C-3.48 2.5, 0.23 4.17, 1.39 4.35 C2.54 4.53, 1.85 5.61, 3.16 5.87 C4.47 6.12, 7.96 6.74, 9.24 5.87 C10.51 5, 11.64 1.43, 10.8 0.63 C9.97 -0.16, 5.11 2.18, 4.22 1.11 C3.34 0.04, 5.78 -4.68, 5.49 -5.76 C5.19 -6.84, 3.43 -6.15, 2.47 -5.35 C1.52 -4.54, 0.17 -1.81, -0.24 -0.92 C-0.65 -0.03, -0.04 -0.15, 0 0 M0 0 C-0.31 -0.07, -0.57 0.63, -1.83 -0.41 C-3.09 -1.46, -5.98 -5.62, -7.57 -6.27 C-9.16 -6.93, -10.52 -5.79, -11.36 -4.35 C-12.2 -2.91, -12.63 0.53, -12.61 2.37 C-12.6 4.22, -10.47 5.65, -11.27 6.74 C-12.07 7.83, -16.44 7.74, -17.42 8.89 C-18.41 10.04, -18.04 12.9, -17.2 13.64 C-16.36 14.39, -13.8 14.04, -12.38 13.35 C-10.96 12.66, -10.16 8.72, -8.7 9.48 C-7.24 10.23, -5 16.42, -3.62 17.87 C-2.24 19.32, -0.39 20.35, -0.42 18.17 C-0.44 15.99, -4.08 7.1, -3.78 4.8 C-3.48 2.5, 0.23 4.17, 1.39 4.35 C2.54 4.53, 1.85 5.61, 3.16 5.87 C4.47 6.12, 7.96 6.74, 9.24 5.87 C10.51 5, 11.64 1.43, 10.8 0.63 C9.97 -0.16, 5.11 2.18, 4.22 1.11 C3.34 0.04, 5.78 -4.68, 5.49 -5.76 C5.19 -6.84, 3.43 -6.15, 2.47 -5.35 C1.52 -4.54, 0.17 -1.81, -0.24 -0.92 C-0.65 -0.03, -0.04 -0.15, 0 0" stroke="#087f5b" stroke-width="1" fill="none"></path></g></g><g stroke-linecap="round"><g stroke-opacity="0.9" fill-opacity="0.9" transform="translate(757.9851847115674 360.9086093061073) rotate(0 21.012855282896567 0.19892696583218594)"><path d="M0.11 -1.13 C7.11 -1.22, 34.14 -0.34, 41.12 -0.08 M-1.3 0.89 C6.15 0.96, 36.24 1.84, 43.32 1.41" stroke="#000000" stroke-width="1" fill="none"></path></g></g><g stroke-linecap="round"><g stroke-opacity="0.9" fill-opacity="0.9" transform="translate(763.0805137413417 345.4740803791411) rotate(0 14.659303301924297 2.6275724513134264)"><path d="M0 0 C0.13 0.38, 0.09 1.58, 0.77 2.28 C1.46 2.97, 2.81 3.68, 4.1 4.19 C5.4 4.7, 6.64 5.13, 8.54 5.34 C10.43 5.55, 12.97 5.55, 15.48 5.45 C17.99 5.34, 21.44 5.28, 23.58 4.71 C25.72 4.14, 27.36 2.86, 28.32 2.03 C29.27 1.2, 29.15 0.12, 29.32 -0.26 M0 0 C0.13 0.38, 0.09 1.58, 0.77 2.28 C1.46 2.97, 2.81 3.68, 4.1 4.19 C5.4 4.7, 6.64 5.13, 8.54 5.34 C10.43 5.55, 12.97 5.55, 15.48 5.45 C17.99 5.34, 21.44 5.28, 23.58 4.71 C25.72 4.14, 27.36 2.86, 28.32 2.03 C29.27 1.2, 29.15 0.12, 29.32 -0.26" stroke="#000000" stroke-width="1" fill="none"></path></g></g><g stroke-opacity="0.9" fill-opacity="0.9" stroke-linecap="round" transform="translate(771.1544296652614 338.5632061133336) rotate(0 7.764217176558077 22.41115194065472)"><path d="M6.49 0.35 C8.08 -0.06, 11.37 1.83, 12.95 4.75 C14.54 7.67, 15.75 13.22, 15.98 17.88 C16.21 22.54, 15.32 28.54, 14.35 32.71 C13.39 36.88, 11.69 41.19, 10.2 42.89 C8.7 44.59, 7.04 44.34, 5.39 42.9 C3.74 41.47, 1.34 38.32, 0.32 34.26 C-0.7 30.2, -1.2 23.37, -0.73 18.52 C-0.25 13.66, 1.62 8.36, 3.17 5.12 C4.72 1.87, 7.67 -0.37, 8.59 -0.96 C9.5 -1.54, 8.6 0.93, 8.68 1.59 M9.46 0.31 C11.06 0.72, 11.22 3.78, 12.19 7.07 C13.16 10.36, 15.04 15.4, 15.29 20.05 C15.55 24.7, 14.73 31.2, 13.74 34.97 C12.75 38.73, 10.92 41.45, 9.37 42.65 C7.81 43.85, 5.65 43.75, 4.39 42.15 C3.14 40.55, 2.37 37.41, 1.85 33.04 C1.32 28.68, 1.2 20.71, 1.25 15.96 C1.31 11.22, 0.72 7.38, 2.18 4.58 C3.64 1.78, 8.84 -0.25, 10.02 -0.85 C11.19 -1.45, 9.52 0.64, 9.23 0.98" stroke="#000000" stroke-width="1" fill="none"></path></g><g stroke-linecap="round"><g stroke-opacity="0.9" fill-opacity="0.9" transform="translate(764.5964652509679 377.21117243758204) rotate(0 14.659303301924297 -2.712622320327597)"><path d="M0 0 C0.68 -0.72, 2.68 -3.4, 4.1 -4.32 C5.53 -5.24, 6.64 -5.3, 8.54 -5.52 C10.43 -5.73, 12.97 -5.73, 15.48 -5.63 C17.99 -5.52, 21.44 -5.45, 23.58 -4.86 C25.72 -4.28, 27.36 -2.95, 28.32 -2.1 C29.27 -1.24, 29.15 -0.12, 29.32 0.27 M0 0 C0.68 -0.72, 2.68 -3.4, 4.1 -4.32 C5.53 -5.24, 6.64 -5.3, 8.54 -5.52 C10.43 -5.73, 12.97 -5.73, 15.48 -5.63 C17.99 -5.52, 21.44 -5.45, 23.58 -4.86 C25.72 -4.28, 27.36 -2.95, 28.32 -2.1 C29.27 -1.24, 29.15 -0.12, 29.32 0.27" stroke="#000000" stroke-width="1" fill="none"></path></g></g><g transform="translate(327.17135252336834 10) rotate(0 93.5 23)"><text x="0" y="32" font-family="Virgil, Segoe UI Emoji" font-size="36px" fill="#000000" text-anchor="start" style="white-space: pre;" direction="ltr">Excalidraw</text></g></svg>