<svg width="100%" height="100%" xmlns:xlink="http://www.w3.org/1999/xlink" class="x6-graph-svg"><defs><marker refX="-2" id="marker-v255-2774738269" overflow="visible" orient="auto" markerUnits="userSpaceOnUse"><path stroke="#333" fill="#333" transform="rotate(180)"></path></marker><marker refX="2" id="marker-v255-2186960143" overflow="visible" orient="auto" markerUnits="userSpaceOnUse"><path stroke="#333" fill="#333"></path></marker><marker id="marker-v255-1343187251" overflow="visible" orient="auto" markerUnits="userSpaceOnUse"><path stroke="#333333" fill="#333333" transform="rotate(180)" d="M 0 0 L 10 -5 L 7.5 0 L 10 5 Z"></path></marker><marker refX="-2" id="marker-v255-2671325849" overflow="visible" orient="auto" markerUnits="userSpaceOnUse"><path stroke="red" fill="red" transform="rotate(180)" d="M 0 0 L 10 -5 L 7.5 0 L 10 5 Z"></path></marker></defs><g class="x6-graph-svg-viewport" transform="matrix(1.3142857551574707,0,0,1.3142857551574707,-49.57143020629883,-10.142857551574707)"><g class="x6-graph-svg-primer"></g><g class="x6-graph-svg-stage"><g data-cell-id="a25bbb4e-093f-4238-a620-31efdee452dc" data-shape="store" class="x6-cell x6-node" transform="translate(565,414)"><rect fill="#ffffff" stroke="#333333" stroke-width="2" opacity="0" magnet="false" width="160" height="80"></rect><text font-size="14" fill="#000000" text-anchor="middle" font-family="Arial, helvetica, sans-serif" transform="matrix(1,0,0,1,80,40)" xml:space="preserve"><tspan class="v-line" dy="0.3em">Worker&nbsp;Config</tspan></text><path stroke="red" stroke-width="3" d="M 0 0 L 160 0"></path><path stroke="red" stroke-width="3" d="M 0 0 L 160 0" transform="matrix(1,0,0,1,0,80)"></path></g><g data-cell-id="936557f9-22e2-4bac-bb70-0089c5c2fbe1" data-shape="store" class="x6-cell x6-node" transform="translate(290,420)"><rect fill="#ffffff" stroke="#333333" stroke-width="2" opacity="0" magnet="false" width="160" height="80"></rect><text font-size="14" fill="#000000" text-anchor="middle" font-family="Arial, helvetica, sans-serif" transform="matrix(1,0,0,1,80,40)" xml:space="preserve"><tspan class="v-line" dy="0.3em">Database</tspan></text><path stroke="red" stroke-width="3" d="M 0 0 L 160 0"></path><path stroke="red" stroke-width="3" d="M 0 0 L 160 0" transform="matrix(1,0,0,1,0,80)"></path></g><g data-cell-id="bdd3e115-4b92-4020-90b7-c3351dba292b" data-shape="store" class="x6-cell x6-node" transform="translate(40,420)"><rect fill="#ffffff" stroke="#333333" stroke-width="2" opacity="0" magnet="false" width="160" height="80"></rect><text font-size="14" fill="#000000" text-anchor="middle" font-family="Arial, helvetica, sans-serif" transform="matrix(1,0,0,1,80,40)" xml:space="preserve"><tspan class="v-line" dy="0.3em">Web&nbsp;Application&nbsp;Config</tspan></text><path stroke="red" stroke-width="3" d="M 0 0 L 160 0"></path><path stroke="red" stroke-width="3" d="M 0 0 L 160 0" transform="matrix(1,0,0,1,0,80)"></path></g><g data-cell-id="ec574fb4-87e7-494b-88dc-2a3c99172067" data-shape="store" class="x6-cell x6-node" transform="translate(502,13)"><rect fill="#ffffff" stroke="#333333" stroke-width="2" opacity="0" magnet="false" width="160" height="80" class=""></rect><text font-size="14" fill="#000000" text-anchor="middle" font-family="Arial, helvetica, sans-serif" transform="matrix(1,0,0,1,80,40)" xml:space="preserve"><tspan class="v-line" dy="0.3em">Message&nbsp;Queue</tspan></text><path stroke="red" stroke-width="3" d="M 0 0 L 160 0"></path><path stroke="red" stroke-width="3" d="M 0 0 L 160 0" transform="matrix(1,0,0,1,0,80)"></path></g><g data-cell-id="3e75b596-9c70-41b6-a2cf-a15899c254d3" data-shape="process" class="x6-cell x6-node" transform="translate(560,180)"><circle fill="#ffffff" stroke="red" stroke-width="3" magnet="false" cx="50" cy="50" r="50"></circle><text font-size="14" fill="#000000" text-anchor="middle" font-family="Arial, helvetica, sans-serif" transform="matrix(1,0,0,1,50,50)" xml:space="preserve"><tspan class="v-line" dy="-0.2em">Background</tspan><tspan dy="1em" x="0" class="v-line">Worker&nbsp;Process</tspan></text><rect opacity="0" width="110.00000000000001" height="110.00000000000001"></rect></g><g data-cell-id="0d9909ea-1398-4898-be81-cf1c808324dc" data-shape="process" class="x6-cell x6-node" transform="translate(300,210)"><circle fill="#ffffff" stroke="#333333" stroke-width="1" magnet="false" cx="50" cy="50" r="50"></circle><text font-size="14" fill="#000000" text-anchor="middle" font-family="Arial, helvetica, sans-serif" transform="matrix(1,0,0,1,50,50)" xml:space="preserve"><tspan class="v-line" dy="-0.2em">Web</tspan><tspan dy="1em" x="0" class="v-line">Application</tspan></text><rect opacity="0" width="110.00000000000001" height="110.00000000000001"></rect></g><g data-cell-id="b394f9f7-07ca-42bc-b616-ad77c6fbfcce" data-shape="actor" class="x6-cell x6-node" transform="translate(40,29)"><rect fill="#ffffff" stroke="#333333" stroke-width="1" magnet="false" width="160" height="80"></rect><text font-size="14" fill="#000000" text-anchor="middle" font-family="Arial, helvetica, sans-serif" transform="matrix(1,0,0,1,80,40)" xml:space="preserve"><tspan class="v-line" dy="0.3em">Browser</tspan></text></g><g data-cell-id="fe0c5455-004b-4209-bc61-05d51d7508f8" data-shape="trust-broundary-curve" class="x6-cell x6-edge"><path fill="none" cursor="pointer" stroke="transparent" stroke-linecap="round" stroke-linejoin="round" stroke-width="10" d="M 80 220 C 160.08 198.58 240.17 177.17 276 149 C 311.83 120.83 303.42 85.92 295 51"></path><path fill="none" pointer-events="none" stroke-linejoin="round" stroke="#333" stroke-width="3" stroke-dasharray="5 5" d="M 80 220 C 160.08 198.58 240.17 177.17 276 149 C 311.83 120.83 303.42 85.92 295 51" marker-end="url(#marker-v255-2774738269)" marker-start="url(#marker-v255-2186960143)"></path><g class="x6-edge-labels"><g class="x6-edge-label" data-index="0" cursor="default" transform="matrix(1,0,0,1,231.1399383544922,173.4912872314453)"><rect fill="#fff" rx="3" ry="3" width="0" height="0" transform="matrix(1,0,0,1,0,0)"></rect><text fill="#000" font-size="14" text-anchor="middle" pointer-events="none" xml:space="preserve" display="none"><tspan style="fill-opacity: 0; stroke-opacity: 0;" class="v-line v-empty-line" dy="0.3em">-</tspan></text></g></g></g><g data-cell-id="a0a4cb8d-5487-46d8-a7bf-d3ea07c7d251" data-shape="trust-broundary-curve" class="x6-cell x6-edge"><path fill="none" cursor="pointer" stroke="transparent" stroke-linecap="round" stroke-linejoin="round" stroke-width="10" d="M 350 10 C 336.96 47.64 323.91 85.29 333 117 C 342.09 148.71 373.31 174.49 432 180 C 490.69 185.51 576.84 170.76 663 156"></path><path fill="none" pointer-events="none" stroke-linejoin="round" stroke="#333" stroke-width="3" stroke-dasharray="5 5" d="M 350 10 C 336.96 47.64 323.91 85.29 333 117 C 342.09 148.71 373.31 174.49 432 180 C 490.69 185.51 576.84 170.76 663 156" marker-end="url(#marker-v255-2774738269)" marker-start="url(#marker-v255-2186960143)"></path><g class="x6-edge-labels"><g class="x6-edge-label" data-index="0" cursor="default" transform="matrix(1,0,0,1,430.9711608886719,179.90106201171875)"><rect fill="#fff" rx="3" ry="3" width="0" height="0" transform="matrix(1,0,0,1,0,0)"></rect><text fill="#000" font-size="14" text-anchor="middle" pointer-events="none" xml:space="preserve" display="none"><tspan style="fill-opacity: 0; stroke-opacity: 0;" class="v-line v-empty-line" dy="0.3em">-</tspan></text></g></g></g><g data-cell-id="ec229d0e-7715-40c8-8a25-e5239cbd8f5e" data-shape="flow" class="x6-cell x6-edge"><path fill="none" cursor="pointer" stroke="transparent" stroke-linecap="round" stroke-linejoin="round" stroke-width="10" d="M 200.47 96.68 C 212.7 94.27 224.93 91.86 245 112 C 265.07 132.14 292.97 174.83 320.87 217.53"></path><path fill="none" pointer-events="none" stroke-linejoin="round" stroke="#333333" stroke-width="1" d="M 200.47 96.68 C 212.7 94.27 224.93 91.86 245 112 C 265.07 132.14 292.97 174.83 320.87 217.53" marker-end="url(#marker-v255-1343187251)"></path><g class="x6-edge-labels"><g class="x6-edge-label" data-index="0" cursor="default" transform="matrix(1,0,0,1,270.4691162109375,142.98214721679688)"><rect fill="#fff" rx="3" ry="3" width="143.46665954589844" height="16.5" transform="matrix(1,0,0,1,-71.69999694824219,-9.300000190734863)"></rect><text fill="#000" font-size="14" text-anchor="middle" pointer-events="none" xml:space="preserve"><tspan class="v-line" dy="0.3em">Web&nbsp;Request&nbsp;(HTTP/S)</tspan></text></g></g></g><g data-cell-id="6e9f52fe-d4c9-41b9-b0ae-06ff5e7f3ea8" data-shape="flow" class="x6-cell x6-edge"><path fill="none" cursor="pointer" stroke="transparent" stroke-linecap="round" stroke-linejoin="round" stroke-width="10" d="M 353.47 209.62 C 340.18 175.84 326.89 142.05 351 120 C 375.11 97.95 436.64 87.63 498.16 77.32"></path><path fill="none" pointer-events="none" stroke-linejoin="round" stroke="red" stroke-width="3" d="M 353.47 209.62 C 340.18 175.84 326.89 142.05 351 120 C 375.11 97.95 436.64 87.63 498.16 77.32" marker-end="url(#marker-v255-2671325849)"></path><g class="x6-edge-labels"><g class="x6-edge-label" data-index="0" cursor="default" transform="matrix(1,0,0,1,376.2283630371094,105.1822738647461)"><rect fill="#fff" rx="3" ry="3" width="81.18333435058594" height="16.5" transform="matrix(1,0,0,1,-40.599998474121094,-9.300000190734863)"></rect><text fill="#000" font-size="14" text-anchor="middle" pointer-events="none" xml:space="preserve"><tspan class="v-line" dy="0.3em">Put&nbsp;Message</tspan></text></g></g></g><g data-cell-id="164744d8-4614-4aa3-8658-a204c823101b" data-shape="flow" class="x6-cell x6-edge"><path fill="none" cursor="pointer" stroke="transparent" stroke-linecap="round" stroke-linejoin="round" stroke-width="10" d="M 561 93.89 C 550.81 102.96 540.62 112.03 544 127 C 547.38 141.97 564.33 162.83 581.27 183.69"></path><path fill="none" pointer-events="none" stroke-linejoin="round" stroke="red" stroke-width="3" d="M 561 93.89 C 550.81 102.96 540.62 112.03 544 127 C 547.38 141.97 564.33 162.83 581.27 183.69" marker-end="url(#marker-v255-2671325849)"></path><g class="x6-edge-labels"><g class="x6-edge-label" data-index="0" cursor="default" transform="matrix(1,0,0,1,549.4246215820312,140.2729949951172)"><rect fill="#fff" rx="3" ry="3" width="55.766666412353516" height="16.5" transform="matrix(1,0,0,1,-27.899999618530273,-9.300000190734863)"></rect><text fill="#000" font-size="14" text-anchor="middle" pointer-events="none" xml:space="preserve"><tspan class="v-line" dy="0.3em">Message</tspan></text></g></g></g><g data-cell-id="046affaf-4187-4ab7-9340-bd5a2b22b4c4" data-shape="flow" class="x6-cell x6-edge"><path fill="none" cursor="pointer" stroke="transparent" stroke-linecap="round" stroke-linejoin="round" stroke-width="10" d="M 404.63 419.24 C 421.45 395.72 438.27 372.2 466 347 C 493.73 321.8 532.38 294.92 571.03 268.04"></path><path fill="none" pointer-events="none" stroke-linejoin="round" stroke="red" stroke-width="3" d="M 404.63 419.24 C 421.45 395.72 438.27 372.2 466 347 C 493.73 321.8 532.38 294.92 571.03 268.04" marker-end="url(#marker-v255-2671325849)"></path><g class="x6-edge-labels"><g class="x6-edge-label" data-index="0" cursor="default" transform="matrix(1,0,0,1,479.756591796875,335.07086181640625)"><rect fill="#fff" rx="3" ry="3" width="139.0500030517578" height="16.5" transform="matrix(1,0,0,1,-69.5,-9.300000190734863)"></rect><text fill="#000" font-size="14" text-anchor="middle" pointer-events="none" xml:space="preserve"><tspan class="v-line" dy="0.3em">Worker&nbsp;Query&nbsp;Results</tspan></text></g></g></g><g data-cell-id="c0c4fba2-b066-4885-8fb1-24dfd89e95cf" data-shape="trust-broundary-curve" class="x6-cell x6-edge"><path fill="none" cursor="pointer" stroke="transparent" stroke-linecap="round" stroke-linejoin="round" stroke-width="10" d="M 241 444 C 264.41 381.84 287.82 319.68 333 288 C 378.18 256.32 445.13 255.13 488 267 C 530.87 278.88 549.68 303.82 552 339 C 554.32 374.18 540.16 419.59 526 465"></path><path fill="none" pointer-events="none" stroke-linejoin="round" stroke="#333" stroke-width="3" stroke-dasharray="5 5" d="M 241 444 C 264.41 381.84 287.82 319.68 333 288 C 378.18 256.32 445.13 255.13 488 267 C 530.87 278.88 549.68 303.82 552 339 C 554.32 374.18 540.16 419.59 526 465" marker-end="url(#marker-v255-2774738269)" marker-start="url(#marker-v255-2186960143)"></path><g class="x6-edge-labels"><g class="x6-edge-label" data-index="0" cursor="default" transform="matrix(1,0,0,1,432.9873352050781,260.07049560546875)"><rect fill="#fff" rx="3" ry="3" width="0" height="0" transform="matrix(1,0,0,1,0,0)"></rect><text fill="#000" font-size="14" text-anchor="middle" pointer-events="none" xml:space="preserve" display="none"><tspan style="fill-opacity: 0; stroke-opacity: 0;" class="v-line v-empty-line" dy="0.3em">-</tspan></text></g></g></g><g data-cell-id="61abb18b-af85-401d-bb61-d4053cf3a145" data-shape="flow" class="x6-cell x6-edge"><path fill="none" cursor="pointer" stroke="transparent" stroke-linecap="round" stroke-linejoin="round" stroke-width="10" d="M 301.68 245.33 C 221.77 221.4 141.87 197.47 111 175 C 80.13 152.53 98.3 131.51 116.48 110.5"></path><path fill="none" pointer-events="none" stroke-linejoin="round" stroke="#333333" stroke-width="1" d="M 301.68 245.33 C 221.77 221.4 141.87 197.47 111 175 C 80.13 152.53 98.3 131.51 116.48 110.5" marker-end="url(#marker-v255-1343187251)"></path><g class="x6-edge-labels"><g class="x6-edge-label" data-index="0" cursor="default" transform="matrix(1,0,0,1,167.78565979003906,202.32455444335938)"><rect fill="#fff" rx="3" ry="3" width="152.35000610351562" height="16.5" transform="matrix(1,0,0,1,-76.19999694824219,-9.300000190734863)"></rect><text fill="#000" font-size="14" text-anchor="middle" pointer-events="none" xml:space="preserve"><tspan class="v-line" dy="0.3em">Web&nbsp;Response&nbsp;(HTTP/S)</tspan></text></g></g></g><g data-cell-id="32f7fc53-663b-4e18-9a8f-6ca6951d3a18" data-shape="flow" class="x6-cell x6-edge"><path fill="none" cursor="pointer" stroke="transparent" stroke-linecap="round" stroke-linejoin="round" stroke-width="10" d="M 129.02 419.02 C 128.76 367.72 128.5 316.42 157 292 C 185.5 267.58 242.78 270.04 300.05 272.5"></path><path fill="none" pointer-events="none" stroke-linejoin="round" stroke="#333333" stroke-width="1" stroke-dasharray="5 2" d="M 129.02 419.02 C 128.76 367.72 128.5 316.42 157 292 C 185.5 267.58 242.78 270.04 300.05 272.5" marker-end="url(#marker-v255-1343187251)"></path><g class="x6-edge-labels"><g class="x6-edge-label" data-index="0" cursor="default" transform="matrix(1,0,0,1,162.30039978027344,287.9788818359375)"><rect fill="#fff" rx="3" ry="3" width="132.38333129882812" height="16.5" transform="matrix(1,0,0,1,-66.19999694824219,-9.300000190734863)"></rect><text fill="#000" font-size="14" text-anchor="middle" pointer-events="none" xml:space="preserve"><tspan class="v-line" dy="0.3em">Read&nbsp;web&nbsp;app&nbsp;config</tspan></text></g></g></g><g data-cell-id="47150102-7f67-49f8-9c3f-fb3975596d93" data-shape="flow" class="x6-cell x6-edge"><path fill="none" cursor="pointer" stroke="transparent" stroke-linecap="round" stroke-linejoin="round" stroke-width="10" d="M 650.81 413.01 C 658.49 378.04 666.17 343.08 664 320 C 661.83 296.92 649.81 285.73 637.79 274.54"></path><path fill="none" pointer-events="none" stroke-linejoin="round" stroke="#333333" stroke-width="1" stroke-dasharray="5 2" d="M 650.81 413.01 C 658.49 378.04 666.17 343.08 664 320 C 661.83 296.92 649.81 285.73 637.79 274.54" marker-end="url(#marker-v255-1343187251)"></path><g class="x6-edge-labels"><g class="x6-edge-label" data-index="0" cursor="default" transform="matrix(1,0,0,1,663.8697509765625,340.18304443359375)"><rect fill="#fff" rx="3" ry="3" width="122.94999694824219" height="16.5" transform="matrix(1,0,0,1,-61.5,-9.300000190734863)"></rect><text fill="#000" font-size="14" text-anchor="middle" pointer-events="none" xml:space="preserve"><tspan class="v-line" dy="0.3em">Read&nbsp;worker&nbsp;config</tspan></text></g></g></g><g data-cell-id="f457d21c-6ee1-43a3-8f0e-adb9c69b1838" data-shape="flow" class="x6-cell x6-edge"><path fill="none" cursor="pointer" stroke="transparent" stroke-linecap="round" stroke-linejoin="round" stroke-width="10" d="M 325.71 304.27 C 316.18 304.64 306.64 305.02 311 324 C 315.36 342.98 333.6 380.57 351.85 418.16"></path><path fill="none" pointer-events="none" stroke-linejoin="round" stroke="#333333" stroke-width="1" d="M 325.71 304.27 C 316.18 304.64 306.64 305.02 311 324 C 315.36 342.98 333.6 380.57 351.85 418.16" marker-end="url(#marker-v255-1343187251)"></path><g class="x6-edge-labels"><g class="x6-edge-label" data-index="0" cursor="default" transform="matrix(1,0,0,1,323.3692321777344,357.66802978515625)"><rect fill="#fff" rx="3" ry="3" width="49.79999923706055" height="16.5" transform="matrix(1,0,0,1,-24.899999618530273,-9.300000190734863)"></rect><text fill="#000" font-size="14" text-anchor="middle" pointer-events="none" xml:space="preserve"><tspan class="v-line" dy="0.3em">Queries</tspan></text></g></g></g><g data-cell-id="591eb98c-535a-42f2-830e-00a1e737b327" data-shape="flow" class="x6-cell x6-edge"><path fill="none" cursor="pointer" stroke="transparent" stroke-linecap="round" stroke-linejoin="round" stroke-width="10" d="M 371.59 419 C 375.57 362.26 379.56 305.53 377 280 C 374.44 254.47 365.34 260.16 356.24 265.84"></path><path fill="none" pointer-events="none" stroke-linejoin="round" stroke="#333333" stroke-width="1" d="M 371.59 419 C 375.57 362.26 379.56 305.53 377 280 C 374.44 254.47 365.34 260.16 356.24 265.84" marker-end="url(#marker-v255-1343187251)"></path><g class="x6-edge-labels"><g class="x6-edge-label" data-index="0" cursor="default" transform="matrix(1,0,0,1,377.01971435546875,331.8561706542969)"><rect fill="#fff" rx="3" ry="3" width="100.5" height="30.5" transform="matrix(1,0,0,1,-50.20000076293945,-16.299999237060547)"></rect><text fill="#000" font-size="14" text-anchor="middle" pointer-events="none" xml:space="preserve"><tspan class="v-line" dy="-0.2em">Web&nbsp;App&nbsp;Query</tspan><tspan dy="1em" x="0" class="v-line">Results</tspan></text></g></g></g><g data-cell-id="32121425-ab28-4ea5-ae95-223b063ba871" data-shape="flow" class="x6-cell x6-edge"><path fill="none" cursor="pointer" stroke="transparent" stroke-linecap="round" stroke-linejoin="round" stroke-width="10" d="M 595.92 279.52 C 585.97 318.64 576.01 357.77 552 382 C 527.99 406.23 489.91 415.58 451.84 424.93"></path><path fill="none" pointer-events="none" stroke-linejoin="round" stroke="#333333" stroke-width="1" d="M 595.92 279.52 C 585.97 318.64 576.01 357.77 552 382 C 527.99 406.23 489.91 415.58 451.84 424.93" marker-end="url(#marker-v255-1343187251)"></path><g class="x6-edge-labels"><g class="x6-edge-label" data-index="0" cursor="default" transform="matrix(1,0,0,1,552.8383178710938,381.1420593261719)"><rect fill="#fff" rx="3" ry="3" width="99.58333587646484" height="16.5" transform="matrix(1,0,0,1,-49.79999923706055,-9.300000190734863)"></rect><text fill="#000" font-size="14" text-anchor="middle" pointer-events="none" xml:space="preserve"><tspan class="v-line" dy="0.3em">Worker&nbsp;Queries</tspan></text></g></g></g></g><g class="x6-graph-svg-decorator"></g><g class="x6-graph-svg-overlay"></g></g></svg>
